<svg class="absolute inset-0" xmlns="http://www.w3.org/2000/svg" width="1920" height="1440" fill="none"><mask id="b" width="1440" height="1440" x="240" y="0" maskUnits="userSpaceOnUse" style="mask-type:alpha"><path fill="url(#a)" d="M0 0h1440v1440H0z" transform="translate(240)"/></mask><g mask="url(#b)"><g clip-path="url(#c)"><mask id="d" fill="#fff"><path d="M192 0h64v64h-64V0Z"/></mask><path fill="#D0D5DD" d="M256 64v1h1v-1h-1Zm-1-64v64h2V0h-2Zm1 63h-64v2h64v-2Z" mask="url(#d)"/><mask id="e" fill="#fff"><path d="M256 0h64v64h-64V0Z"/></mask><path fill="#D0D5DD" d="M320 64v1h1v-1h-1Zm-1-64v64h2V0h-2Zm1 63h-64v2h64v-2Z" mask="url(#e)"/><mask id="f" fill="#fff"><path d="M320 0h64v64h-64V0Z"/></mask><path fill="#D0D5DD" d="M384 64v1h1v-1h-1Zm-1-64v64h2V0h-2Zm1 63h-64v2h64v-2Z" mask="url(#f)"/><mask id="g" fill="#fff"><path d="M384 0h64v64h-64V0Z"/></mask><path fill="#D0D5DD" d="M448 64v1h1v-1h-1Zm-1-64v64h2V0h-2Zm1 63h-64v2h64v-2Z" mask="url(#g)"/><mask id="h" fill="#fff"><path d="M448 0h64v64h-64V0Z"/></mask><path fill="#D0D5DD" d="M512 64v1h1v-1h-1Zm-1-64v64h2V0h-2Zm1 63h-64v2h64v-2Z" mask="url(#h)"/><mask id="i" fill="#fff"><path d="M512 0h64v64h-64V0Z"/></mask><path fill="#D0D5DD" d="M576 64v1h1v-1h-1Zm-1-64v64h2V0h-2Zm1 63h-64v2h64v-2Z" mask="url(#i)"/><mask id="j" fill="#fff"><path d="M576 0h64v64h-64V0Z"/></mask><path fill="#D0D5DD" d="M640 64v1h1v-1h-1Zm-1-64v64h2V0h-2Zm1 63h-64v2h64v-2Z" mask="url(#j)"/><mask id="k" fill="#fff"><path d="M640 0h64v64h-64V0Z"/></mask><path fill="#D0D5DD" d="M704 64v1h1v-1h-1Zm-1-64v64h2V0h-2Zm1 63h-64v2h64v-2Z" mask="url(#k)"/><mask id="l" fill="#fff"><path d="M704 0h64v64h-64V0Z"/></mask><path fill="#D0D5DD" d="M768 64v1h1v-1h-1Zm-1-64v64h2V0h-2Zm1 63h-64v2h64v-2Z" mask="url(#l)"/><mask id="m" fill="#fff"><path d="M768 0h64v64h-64V0Z"/></mask><path fill="#D0D5DD" d="M832 64v1h1v-1h-1Zm-1-64v64h2V0h-2Zm1 63h-64v2h64v-2Z" mask="url(#m)"/><mask id="n" fill="#fff"><path d="M832 0h64v64h-64V0Z"/></mask><path fill="#D0D5DD" d="M896 64v1h1v-1h-1Zm-1-64v64h2V0h-2Zm1 63h-64v2h64v-2Z" mask="url(#n)"/><mask id="o" fill="#fff"><path d="M896 0h64v64h-64V0Z"/></mask><path fill="#D0D5DD" d="M960 64v1h1v-1h-1Zm-1-64v64h2V0h-2Zm1 63h-64v2h64v-2Z" mask="url(#o)"/><mask id="p" fill="#fff"><path d="M960 0h64v64h-64V0Z"/></mask><path fill="#D0D5DD" d="M1024 64v1h1v-1h-1Zm-1-64v64h2V0h-2Zm1 63h-64v2h64v-2Z" mask="url(#p)"/><mask id="q" fill="#fff"><path d="M1024 0h64v64h-64V0Z"/></mask><path fill="#D0D5DD" d="M1088 64v1h1v-1h-1Zm-1-64v64h2V0h-2Zm1 63h-64v2h64v-2Z" mask="url(#q)"/><mask id="r" fill="#fff"><path d="M1088 0h64v64h-64V0Z"/></mask><path fill="#D0D5DD" d="M1152 64v1h1v-1h-1Zm-1-64v64h2V0h-2Zm1 63h-64v2h64v-2Z" mask="url(#r)"/><mask id="s" fill="#fff"><path d="M1152 0h64v64h-64V0Z"/></mask><path fill="#D0D5DD" d="M1216 64v1h1v-1h-1Zm-1-64v64h2V0h-2Zm1 63h-64v2h64v-2Z" mask="url(#s)"/><mask id="t" fill="#fff"><path d="M1216 0h64v64h-64V0Z"/></mask><path fill="#D0D5DD" d="M1280 64v1h1v-1h-1Zm-1-64v64h2V0h-2Zm1 63h-64v2h64v-2Z" mask="url(#t)"/><mask id="u" fill="#fff"><path d="M1280 0h64v64h-64V0Z"/></mask><path fill="#D0D5DD" d="M1344 64v1h1v-1h-1Zm-1-64v64h2V0h-2Zm1 63h-64v2h64v-2Z" mask="url(#u)"/><mask id="v" fill="#fff"><path d="M1344 0h64v64h-64V0Z"/></mask><path fill="#D0D5DD" d="M1408 64v1h1v-1h-1Zm-1-64v64h2V0h-2Zm1 63h-64v2h64v-2Z" mask="url(#v)"/><mask id="w" fill="#fff"><path d="M1408 0h64v64h-64V0Z"/></mask><path fill="#D0D5DD" d="M1472 64v1h1v-1h-1Zm-1-64v64h2V0h-2Zm1 63h-64v2h64v-2Z" mask="url(#w)"/><mask id="x" fill="#fff"><path d="M1472 0h64v64h-64V0Z"/></mask><path fill="#D0D5DD" d="M1536 64v1h1v-1h-1Zm-1-64v64h2V0h-2Zm1 63h-64v2h64v-2Z" mask="url(#x)"/><mask id="y" fill="#fff"><path d="M1536 0h64v64h-64V0Z"/></mask><path fill="#D0D5DD" d="M1600 64v1h1v-1h-1Zm-1-64v64h2V0h-2Zm1 63h-64v2h64v-2Z" mask="url(#y)"/><mask id="z" fill="#fff"><path d="M1600 0h64v64h-64V0Z"/></mask><path fill="#D0D5DD" d="M1664 64v1h1v-1h-1Zm-1-64v64h2V0h-2Zm1 63h-64v2h64v-2Z" mask="url(#z)"/><mask id="A" fill="#fff"><path d="M1664 0h64v64h-64V0Z"/></mask><path fill="#D0D5DD" d="M1728 64v1h1v-1h-1Zm-1-64v64h2V0h-2Zm1 63h-64v2h64v-2Z" mask="url(#A)"/><mask id="B" fill="#fff"><path d="M192 64h64v64h-64V64Z"/></mask><path fill="#D0D5DD" d="M256 128v1h1v-1h-1Zm-1-64v64h2V64h-2Zm1 63h-64v2h64v-2Z" mask="url(#B)"/><mask id="C" fill="#fff"><path d="M256 64h64v64h-64V64Z"/></mask><path fill="#D0D5DD" d="M320 128v1h1v-1h-1Zm-1-64v64h2V64h-2Zm1 63h-64v2h64v-2Z" mask="url(#C)"/><mask id="D" fill="#fff"><path d="M320 64h64v64h-64V64Z"/></mask><path fill="#F2F4F7" d="M320 64h64v64h-64V64Z"/><path fill="#D0D5DD" d="M384 128v1h1v-1h-1Zm-1-64v64h2V64h-2Zm1 63h-64v2h64v-2Z" mask="url(#D)"/><mask id="E" fill="#fff"><path d="M384 64h64v64h-64V64Z"/></mask><path fill="#D0D5DD" d="M448 128v1h1v-1h-1Zm-1-64v64h2V64h-2Zm1 63h-64v2h64v-2Z" mask="url(#E)"/><mask id="F" fill="#fff"><path d="M448 64h64v64h-64V64Z"/></mask><path fill="#D0D5DD" d="M512 128v1h1v-1h-1Zm-1-64v64h2V64h-2Zm1 63h-64v2h64v-2Z" mask="url(#F)"/><mask id="G" fill="#fff"><path d="M512 64h64v64h-64V64Z"/></mask><path fill="#D0D5DD" d="M576 128v1h1v-1h-1Zm-1-64v64h2V64h-2Zm1 63h-64v2h64v-2Z" mask="url(#G)"/><mask id="H" fill="#fff"><path d="M576 64h64v64h-64V64Z"/></mask><path fill="#F2F4F7" d="M576 64h64v64h-64V64Z"/><path fill="#D0D5DD" d="M640 128v1h1v-1h-1Zm-1-64v64h2V64h-2Zm1 63h-64v2h64v-2Z" mask="url(#H)"/><mask id="I" fill="#fff"><path d="M640 64h64v64h-64V64Z"/></mask><path fill="#D0D5DD" d="M704 128v1h1v-1h-1Zm-1-64v64h2V64h-2Zm1 63h-64v2h64v-2Z" mask="url(#I)"/><mask id="J" fill="#fff"><path d="M704 64h64v64h-64V64Z"/></mask><path fill="#D0D5DD" d="M768 128v1h1v-1h-1Zm-1-64v64h2V64h-2Zm1 63h-64v2h64v-2Z" mask="url(#J)"/><mask id="K" fill="#fff"><path d="M768 64h64v64h-64V64Z"/></mask><path fill="#D0D5DD" d="M832 128v1h1v-1h-1Zm-1-64v64h2V64h-2Zm1 63h-64v2h64v-2Z" mask="url(#K)"/><mask id="L" fill="#fff"><path d="M832 64h64v64h-64V64Z"/></mask><path fill="#D0D5DD" d="M896 128v1h1v-1h-1Zm-1-64v64h2V64h-2Zm1 63h-64v2h64v-2Z" mask="url(#L)"/><mask id="M" fill="#fff"><path d="M896 64h64v64h-64V64Z"/></mask><path fill="#D0D5DD" d="M960 128v1h1v-1h-1Zm-1-64v64h2V64h-2Zm1 63h-64v2h64v-2Z" mask="url(#M)"/><mask id="N" fill="#fff"><path d="M960 64h64v64h-64V64Z"/></mask><path fill="#D0D5DD" d="M1024 128v1h1v-1h-1Zm-1-64v64h2V64h-2Zm1 63h-64v2h64v-2Z" mask="url(#N)"/><mask id="O" fill="#fff"><path d="M1024 64h64v64h-64V64Z"/></mask><path fill="#D0D5DD" d="M1088 128v1h1v-1h-1Zm-1-64v64h2V64h-2Zm1 63h-64v2h64v-2Z" mask="url(#O)"/><mask id="P" fill="#fff"><path d="M1088 64h64v64h-64V64Z"/></mask><path fill="#D0D5DD" d="M1152 128v1h1v-1h-1Zm-1-64v64h2V64h-2Zm1 63h-64v2h64v-2Z" mask="url(#P)"/><mask id="Q" fill="#fff"><path d="M1152 64h64v64h-64V64Z"/></mask><path fill="#D0D5DD" d="M1216 128v1h1v-1h-1Zm-1-64v64h2V64h-2Zm1 63h-64v2h64v-2Z" mask="url(#Q)"/><mask id="R" fill="#fff"><path d="M1216 64h64v64h-64V64Z"/></mask><path fill="#D0D5DD" d="M1280 128v1h1v-1h-1Zm-1-64v64h2V64h-2Zm1 63h-64v2h64v-2Z" mask="url(#R)"/><mask id="S" fill="#fff"><path d="M1280 64h64v64h-64V64Z"/></mask><path fill="#F2F4F7" d="M1280 64h64v64h-64V64Z"/><path fill="#D0D5DD" d="M1344 128v1h1v-1h-1Zm-1-64v64h2V64h-2Zm1 63h-64v2h64v-2Z" mask="url(#S)"/><mask id="T" fill="#fff"><path d="M1344 64h64v64h-64V64Z"/></mask><path fill="#D0D5DD" d="M1408 128v1h1v-1h-1Zm-1-64v64h2V64h-2Zm1 63h-64v2h64v-2Z" mask="url(#T)"/><mask id="U" fill="#fff"><path d="M1408 64h64v64h-64V64Z"/></mask><path fill="#D0D5DD" d="M1472 128v1h1v-1h-1Zm-1-64v64h2V64h-2Zm1 63h-64v2h64v-2Z" mask="url(#U)"/><mask id="V" fill="#fff"><path d="M1472 64h64v64h-64V64Z"/></mask><path fill="#D0D5DD" d="M1536 128v1h1v-1h-1Zm-1-64v64h2V64h-2Zm1 63h-64v2h64v-2Z" mask="url(#V)"/><mask id="W" fill="#fff"><path d="M1536 64h64v64h-64V64Z"/></mask><path fill="#D0D5DD" d="M1600 128v1h1v-1h-1Zm-1-64v64h2V64h-2Zm1 63h-64v2h64v-2Z" mask="url(#W)"/><mask id="X" fill="#fff"><path d="M1600 64h64v64h-64V64Z"/></mask><path fill="#D0D5DD" d="M1664 128v1h1v-1h-1Zm-1-64v64h2V64h-2Zm1 63h-64v2h64v-2Z" mask="url(#X)"/><mask id="Y" fill="#fff"><path d="M1664 64h64v64h-64V64Z"/></mask><path fill="#D0D5DD" d="M1728 128v1h1v-1h-1Zm-1-64v64h2V64h-2Zm1 63h-64v2h64v-2Z" mask="url(#Y)"/><mask id="Z" fill="#fff"><path d="M192 128h64v64h-64v-64Z"/></mask><path fill="#D0D5DD" d="M256 192v1h1v-1h-1Zm-1-64v64h2v-64h-2Zm1 63h-64v2h64v-2Z" mask="url(#Z)"/><mask id="aa" fill="#fff"><path d="M256 128h64v64h-64v-64Z"/></mask><path fill="#D0D5DD" d="M320 192v1h1v-1h-1Zm-1-64v64h2v-64h-2Zm1 63h-64v2h64v-2Z" mask="url(#aa)"/><mask id="ab" fill="#fff"><path d="M320 128h64v64h-64v-64Z"/></mask><path fill="#D0D5DD" d="M384 192v1h1v-1h-1Zm-1-64v64h2v-64h-2Zm1 63h-64v2h64v-2Z" mask="url(#ab)"/><mask id="ac" fill="#fff"><path d="M384 128h64v64h-64v-64Z"/></mask><path fill="#D0D5DD" d="M448 192v1h1v-1h-1Zm-1-64v64h2v-64h-2Zm1 63h-64v2h64v-2Z" mask="url(#ac)"/><mask id="ad" fill="#fff"><path d="M448 128h64v64h-64v-64Z"/></mask><path fill="#D0D5DD" d="M512 192v1h1v-1h-1Zm-1-64v64h2v-64h-2Zm1 63h-64v2h64v-2Z" mask="url(#ad)"/><mask id="ae" fill="#fff"><path d="M512 128h64v64h-64v-64Z"/></mask><path fill="#D0D5DD" d="M576 192v1h1v-1h-1Zm-1-64v64h2v-64h-2Zm1 63h-64v2h64v-2Z" mask="url(#ae)"/><mask id="af" fill="#fff"><path d="M576 128h64v64h-64v-64Z"/></mask><path fill="#D0D5DD" d="M640 192v1h1v-1h-1Zm-1-64v64h2v-64h-2Zm1 63h-64v2h64v-2Z" mask="url(#af)"/><mask id="ag" fill="#fff"><path d="M640 128h64v64h-64v-64Z"/></mask><path fill="#D0D5DD" d="M704 192v1h1v-1h-1Zm-1-64v64h2v-64h-2Zm1 63h-64v2h64v-2Z" mask="url(#ag)"/><mask id="ah" fill="#fff"><path d="M704 128h64v64h-64v-64Z"/></mask><path fill="#F2F4F7" d="M704 128h64v64h-64v-64Z"/><path fill="#D0D5DD" d="M768 192v1h1v-1h-1Zm-1-64v64h2v-64h-2Zm1 63h-64v2h64v-2Z" mask="url(#ah)"/><mask id="ai" fill="#fff"><path d="M768 128h64v64h-64v-64Z"/></mask><path fill="#D0D5DD" d="M832 192v1h1v-1h-1Zm-1-64v64h2v-64h-2Zm1 63h-64v2h64v-2Z" mask="url(#ai)"/><mask id="aj" fill="#fff"><path d="M832 128h64v64h-64v-64Z"/></mask><path fill="#D0D5DD" d="M896 192v1h1v-1h-1Zm-1-64v64h2v-64h-2Zm1 63h-64v2h64v-2Z" mask="url(#aj)"/><mask id="ak" fill="#fff"><path d="M896 128h64v64h-64v-64Z"/></mask><path fill="#D0D5DD" d="M960 192v1h1v-1h-1Zm-1-64v64h2v-64h-2Zm1 63h-64v2h64v-2Z" mask="url(#ak)"/><mask id="al" fill="#fff"><path d="M960 128h64v64h-64v-64Z"/></mask><path fill="#D0D5DD" d="M1024 192v1h1v-1h-1Zm-1-64v64h2v-64h-2Zm1 63h-64v2h64v-2Z" mask="url(#al)"/><mask id="am" fill="#fff"><path d="M1024 128h64v64h-64v-64Z"/></mask><path fill="#F2F4F7" d="M1024 128h64v64h-64v-64Z"/><path fill="#D0D5DD" d="M1088 192v1h1v-1h-1Zm-1-64v64h2v-64h-2Zm1 63h-64v2h64v-2Z" mask="url(#am)"/><mask id="an" fill="#fff"><path d="M1088 128h64v64h-64v-64Z"/></mask><path fill="#D0D5DD" d="M1152 192v1h1v-1h-1Zm-1-64v64h2v-64h-2Zm1 63h-64v2h64v-2Z" mask="url(#an)"/><mask id="ao" fill="#fff"><path d="M1152 128h64v64h-64v-64Z"/></mask><path fill="#D0D5DD" d="M1216 192v1h1v-1h-1Zm-1-64v64h2v-64h-2Zm1 63h-64v2h64v-2Z" mask="url(#ao)"/><mask id="ap" fill="#fff"><path d="M1216 128h64v64h-64v-64Z"/></mask><path fill="#D0D5DD" d="M1280 192v1h1v-1h-1Zm-1-64v64h2v-64h-2Zm1 63h-64v2h64v-2Z" mask="url(#ap)"/><mask id="aq" fill="#fff"><path d="M1280 128h64v64h-64v-64Z"/></mask><path fill="#D0D5DD" d="M1344 192v1h1v-1h-1Zm-1-64v64h2v-64h-2Zm1 63h-64v2h64v-2Z" mask="url(#aq)"/><mask id="ar" fill="#fff"><path d="M1344 128h64v64h-64v-64Z"/></mask><path fill="#D0D5DD" d="M1408 192v1h1v-1h-1Zm-1-64v64h2v-64h-2Zm1 63h-64v2h64v-2Z" mask="url(#ar)"/><mask id="as" fill="#fff"><path d="M1408 128h64v64h-64v-64Z"/></mask><path fill="#D0D5DD" d="M1472 192v1h1v-1h-1Zm-1-64v64h2v-64h-2Zm1 63h-64v2h64v-2Z" mask="url(#as)"/><mask id="at" fill="#fff"><path d="M1472 128h64v64h-64v-64Z"/></mask><path fill="#D0D5DD" d="M1536 192v1h1v-1h-1Zm-1-64v64h2v-64h-2Zm1 63h-64v2h64v-2Z" mask="url(#at)"/><mask id="au" fill="#fff"><path d="M1536 128h64v64h-64v-64Z"/></mask><path fill="#D0D5DD" d="M1600 192v1h1v-1h-1Zm-1-64v64h2v-64h-2Zm1 63h-64v2h64v-2Z" mask="url(#au)"/><mask id="av" fill="#fff"><path d="M1600 128h64v64h-64v-64Z"/></mask><path fill="#D0D5DD" d="M1664 192v1h1v-1h-1Zm-1-64v64h2v-64h-2Zm1 63h-64v2h64v-2Z" mask="url(#av)"/><mask id="aw" fill="#fff"><path d="M1664 128h64v64h-64v-64Z"/></mask><path fill="#F2F4F7" d="M1664 128h64v64h-64v-64Z"/><path fill="#D0D5DD" d="M1728 192v1h1v-1h-1Zm-1-64v64h2v-64h-2Zm1 63h-64v2h64v-2Z" mask="url(#aw)"/><mask id="ax" fill="#fff"><path d="M192 192h64v64h-64v-64Z"/></mask><path fill="#F2F4F7" d="M192 192h64v64h-64v-64Z"/><path fill="#D0D5DD" d="M256 256v1h1v-1h-1Zm-1-64v64h2v-64h-2Zm1 63h-64v2h64v-2Z" mask="url(#ax)"/><mask id="ay" fill="#fff"><path d="M256 192h64v64h-64v-64Z"/></mask><path fill="#D0D5DD" d="M320 256v1h1v-1h-1Zm-1-64v64h2v-64h-2Zm1 63h-64v2h64v-2Z" mask="url(#ay)"/><mask id="az" fill="#fff"><path d="M320 192h64v64h-64v-64Z"/></mask><path fill="#D0D5DD" d="M384 256v1h1v-1h-1Zm-1-64v64h2v-64h-2Zm1 63h-64v2h64v-2Z" mask="url(#az)"/><mask id="aA" fill="#fff"><path d="M384 192h64v64h-64v-64Z"/></mask><path fill="#F2F4F7" d="M384 192h64v64h-64v-64Z"/><path fill="#D0D5DD" d="M448 256v1h1v-1h-1Zm-1-64v64h2v-64h-2Zm1 63h-64v2h64v-2Z" mask="url(#aA)"/><mask id="aB" fill="#fff"><path d="M448 192h64v64h-64v-64Z"/></mask><path fill="#D0D5DD" d="M512 256v1h1v-1h-1Zm-1-64v64h2v-64h-2Zm1 63h-64v2h64v-2Z" mask="url(#aB)"/><mask id="aC" fill="#fff"><path d="M512 192h64v64h-64v-64Z"/></mask><path fill="#D0D5DD" d="M576 256v1h1v-1h-1Zm-1-64v64h2v-64h-2Zm1 63h-64v2h64v-2Z" mask="url(#aC)"/><mask id="aD" fill="#fff"><path d="M576 192h64v64h-64v-64Z"/></mask><path fill="#D0D5DD" d="M640 256v1h1v-1h-1Zm-1-64v64h2v-64h-2Zm1 63h-64v2h64v-2Z" mask="url(#aD)"/><mask id="aE" fill="#fff"><path d="M640 192h64v64h-64v-64Z"/></mask><path fill="#D0D5DD" d="M704 256v1h1v-1h-1Zm-1-64v64h2v-64h-2Zm1 63h-64v2h64v-2Z" mask="url(#aE)"/><mask id="aF" fill="#fff"><path d="M704 192h64v64h-64v-64Z"/></mask><path fill="#D0D5DD" d="M768 256v1h1v-1h-1Zm-1-64v64h2v-64h-2Zm1 63h-64v2h64v-2Z" mask="url(#aF)"/><mask id="aG" fill="#fff"><path d="M768 192h64v64h-64v-64Z"/></mask><path fill="#D0D5DD" d="M832 256v1h1v-1h-1Zm-1-64v64h2v-64h-2Zm1 63h-64v2h64v-2Z" mask="url(#aG)"/><mask id="aH" fill="#fff"><path d="M832 192h64v64h-64v-64Z"/></mask><path fill="#D0D5DD" d="M896 256v1h1v-1h-1Zm-1-64v64h2v-64h-2Zm1 63h-64v2h64v-2Z" mask="url(#aH)"/><mask id="aI" fill="#fff"><path d="M896 192h64v64h-64v-64Z"/></mask><path fill="#D0D5DD" d="M960 256v1h1v-1h-1Zm-1-64v64h2v-64h-2Zm1 63h-64v2h64v-2Z" mask="url(#aI)"/><mask id="aJ" fill="#fff"><path d="M960 192h64v64h-64v-64Z"/></mask><path fill="#D0D5DD" d="M1024 256v1h1v-1h-1Zm-1-64v64h2v-64h-2Zm1 63h-64v2h64v-2Z" mask="url(#aJ)"/><mask id="aK" fill="#fff"><path d="M1024 192h64v64h-64v-64Z"/></mask><path fill="#D0D5DD" d="M1088 256v1h1v-1h-1Zm-1-64v64h2v-64h-2Zm1 63h-64v2h64v-2Z" mask="url(#aK)"/><mask id="aL" fill="#fff"><path d="M1088 192h64v64h-64v-64Z"/></mask><path fill="#D0D5DD" d="M1152 256v1h1v-1h-1Zm-1-64v64h2v-64h-2Zm1 63h-64v2h64v-2Z" mask="url(#aL)"/><mask id="aM" fill="#fff"><path d="M1152 192h64v64h-64v-64Z"/></mask><path fill="#D0D5DD" d="M1216 256v1h1v-1h-1Zm-1-64v64h2v-64h-2Zm1 63h-64v2h64v-2Z" mask="url(#aM)"/><mask id="aN" fill="#fff"><path d="M1216 192h64v64h-64v-64Z"/></mask><path fill="#D0D5DD" d="M1280 256v1h1v-1h-1Zm-1-64v64h2v-64h-2Zm1 63h-64v2h64v-2Z" mask="url(#aN)"/><mask id="aO" fill="#fff"><path d="M1280 192h64v64h-64v-64Z"/></mask><path fill="#F2F4F7" d="M1280 192h64v64h-64v-64Z"/><path fill="#D0D5DD" d="M1344 256v1h1v-1h-1Zm-1-64v64h2v-64h-2Zm1 63h-64v2h64v-2Z" mask="url(#aO)"/><mask id="aP" fill="#fff"><path d="M1344 192h64v64h-64v-64Z"/></mask><path fill="#D0D5DD" d="M1408 256v1h1v-1h-1Zm-1-64v64h2v-64h-2Zm1 63h-64v2h64v-2Z" mask="url(#aP)"/><mask id="aQ" fill="#fff"><path d="M1408 192h64v64h-64v-64Z"/></mask><path fill="#D0D5DD" d="M1472 256v1h1v-1h-1Zm-1-64v64h2v-64h-2Zm1 63h-64v2h64v-2Z" mask="url(#aQ)"/><mask id="aR" fill="#fff"><path d="M1472 192h64v64h-64v-64Z"/></mask><path fill="#D0D5DD" d="M1536 256v1h1v-1h-1Zm-1-64v64h2v-64h-2Zm1 63h-64v2h64v-2Z" mask="url(#aR)"/><mask id="aS" fill="#fff"><path d="M1536 192h64v64h-64v-64Z"/></mask><path fill="#D0D5DD" d="M1600 256v1h1v-1h-1Zm-1-64v64h2v-64h-2Zm1 63h-64v2h64v-2Z" mask="url(#aS)"/><mask id="aT" fill="#fff"><path d="M1600 192h64v64h-64v-64Z"/></mask><path fill="#D0D5DD" d="M1664 256v1h1v-1h-1Zm-1-64v64h2v-64h-2Zm1 63h-64v2h64v-2Z" mask="url(#aT)"/><mask id="aU" fill="#fff"><path d="M1664 192h64v64h-64v-64Z"/></mask><path fill="#D0D5DD" d="M1728 256v1h1v-1h-1Zm-1-64v64h2v-64h-2Zm1 63h-64v2h64v-2Z" mask="url(#aU)"/><mask id="aV" fill="#fff"><path d="M192 256h64v64h-64v-64Z"/></mask><path fill="#D0D5DD" d="M256 320v1h1v-1h-1Zm-1-64v64h2v-64h-2Zm1 63h-64v2h64v-2Z" mask="url(#aV)"/><mask id="aW" fill="#fff"><path d="M256 256h64v64h-64v-64Z"/></mask><path fill="#D0D5DD" d="M320 320v1h1v-1h-1Zm-1-64v64h2v-64h-2Zm1 63h-64v2h64v-2Z" mask="url(#aW)"/><mask id="aX" fill="#fff"><path d="M320 256h64v64h-64v-64Z"/></mask><path fill="#D0D5DD" d="M384 320v1h1v-1h-1Zm-1-64v64h2v-64h-2Zm1 63h-64v2h64v-2Z" mask="url(#aX)"/><mask id="aY" fill="#fff"><path d="M384 256h64v64h-64v-64Z"/></mask><path fill="#D0D5DD" d="M448 320v1h1v-1h-1Zm-1-64v64h2v-64h-2Zm1 63h-64v2h64v-2Z" mask="url(#aY)"/><mask id="aZ" fill="#fff"><path d="M448 256h64v64h-64v-64Z"/></mask><path fill="#D0D5DD" d="M512 320v1h1v-1h-1Zm-1-64v64h2v-64h-2Zm1 63h-64v2h64v-2Z" mask="url(#aZ)"/><mask id="ba" fill="#fff"><path d="M512 256h64v64h-64v-64Z"/></mask><path fill="#F2F4F7" d="M512 256h64v64h-64v-64Z"/><path fill="#D0D5DD" d="M576 320v1h1v-1h-1Zm-1-64v64h2v-64h-2Zm1 63h-64v2h64v-2Z" mask="url(#ba)"/><mask id="bb" fill="#fff"><path d="M576 256h64v64h-64v-64Z"/></mask><path fill="#D0D5DD" d="M640 320v1h1v-1h-1Zm-1-64v64h2v-64h-2Zm1 63h-64v2h64v-2Z" mask="url(#bb)"/><mask id="bc" fill="#fff"><path d="M640 256h64v64h-64v-64Z"/></mask><path fill="#D0D5DD" d="M704 320v1h1v-1h-1Zm-1-64v64h2v-64h-2Zm1 63h-64v2h64v-2Z" mask="url(#bc)"/><mask id="bd" fill="#fff"><path d="M704 256h64v64h-64v-64Z"/></mask><path fill="#D0D5DD" d="M768 320v1h1v-1h-1Zm-1-64v64h2v-64h-2Zm1 63h-64v2h64v-2Z" mask="url(#bd)"/><mask id="be" fill="#fff"><path d="M768 256h64v64h-64v-64Z"/></mask><path fill="#D0D5DD" d="M832 320v1h1v-1h-1Zm-1-64v64h2v-64h-2Zm1 63h-64v2h64v-2Z" mask="url(#be)"/><mask id="bf" fill="#fff"><path d="M832 256h64v64h-64v-64Z"/></mask><path fill="#F2F4F7" d="M832 256h64v64h-64v-64Z"/><path fill="#D0D5DD" d="M896 320v1h1v-1h-1Zm-1-64v64h2v-64h-2Zm1 63h-64v2h64v-2Z" mask="url(#bf)"/><mask id="bg" fill="#fff"><path d="M896 256h64v64h-64v-64Z"/></mask><path fill="#D0D5DD" d="M960 320v1h1v-1h-1Zm-1-64v64h2v-64h-2Zm1 63h-64v2h64v-2Z" mask="url(#bg)"/><mask id="bh" fill="#fff"><path d="M960 256h64v64h-64v-64Z"/></mask><path fill="#D0D5DD" d="M1024 320v1h1v-1h-1Zm-1-64v64h2v-64h-2Zm1 63h-64v2h64v-2Z" mask="url(#bh)"/><mask id="bi" fill="#fff"><path d="M1024 256h64v64h-64v-64Z"/></mask><path fill="#D0D5DD" d="M1088 320v1h1v-1h-1Zm-1-64v64h2v-64h-2Zm1 63h-64v2h64v-2Z" mask="url(#bi)"/><mask id="bj" fill="#fff"><path d="M1088 256h64v64h-64v-64Z"/></mask><path fill="#D0D5DD" d="M1152 320v1h1v-1h-1Zm-1-64v64h2v-64h-2Zm1 63h-64v2h64v-2Z" mask="url(#bj)"/><mask id="bk" fill="#fff"><path d="M1152 256h64v64h-64v-64Z"/></mask><path fill="#D0D5DD" d="M1216 320v1h1v-1h-1Zm-1-64v64h2v-64h-2Zm1 63h-64v2h64v-2Z" mask="url(#bk)"/><mask id="bl" fill="#fff"><path d="M1216 256h64v64h-64v-64Z"/></mask><path fill="#D0D5DD" d="M1280 320v1h1v-1h-1Zm-1-64v64h2v-64h-2Zm1 63h-64v2h64v-2Z" mask="url(#bl)"/><mask id="bm" fill="#fff"><path d="M1280 256h64v64h-64v-64Z"/></mask><path fill="#D0D5DD" d="M1344 320v1h1v-1h-1Zm-1-64v64h2v-64h-2Zm1 63h-64v2h64v-2Z" mask="url(#bm)"/><mask id="bn" fill="#fff"><path d="M1344 256h64v64h-64v-64Z"/></mask><path fill="#D0D5DD" d="M1408 320v1h1v-1h-1Zm-1-64v64h2v-64h-2Zm1 63h-64v2h64v-2Z" mask="url(#bn)"/><mask id="bo" fill="#fff"><path d="M1408 256h64v64h-64v-64Z"/></mask><path fill="#D0D5DD" d="M1472 320v1h1v-1h-1Zm-1-64v64h2v-64h-2Zm1 63h-64v2h64v-2Z" mask="url(#bo)"/><mask id="bp" fill="#fff"><path d="M1472 256h64v64h-64v-64Z"/></mask><path fill="#D0D5DD" d="M1536 320v1h1v-1h-1Zm-1-64v64h2v-64h-2Zm1 63h-64v2h64v-2Z" mask="url(#bp)"/><mask id="bq" fill="#fff"><path d="M1536 256h64v64h-64v-64Z"/></mask><path fill="#F2F4F7" d="M1536 256h64v64h-64v-64Z"/><path fill="#D0D5DD" d="M1600 320v1h1v-1h-1Zm-1-64v64h2v-64h-2Zm1 63h-64v2h64v-2Z" mask="url(#bq)"/><mask id="br" fill="#fff"><path d="M1600 256h64v64h-64v-64Z"/></mask><path fill="#D0D5DD" d="M1664 320v1h1v-1h-1Zm-1-64v64h2v-64h-2Zm1 63h-64v2h64v-2Z" mask="url(#br)"/><mask id="bs" fill="#fff"><path d="M1664 256h64v64h-64v-64Z"/></mask><path fill="#D0D5DD" d="M1728 320v1h1v-1h-1Zm-1-64v64h2v-64h-2Zm1 63h-64v2h64v-2Z" mask="url(#bs)"/><mask id="bt" fill="#fff"><path d="M192 320h64v64h-64v-64Z"/></mask><path fill="#D0D5DD" d="M256 384v1h1v-1h-1Zm-1-64v64h2v-64h-2Zm1 63h-64v2h64v-2Z" mask="url(#bt)"/><mask id="bu" fill="#fff"><path d="M256 320h64v64h-64v-64Z"/></mask><path fill="#D0D5DD" d="M320 384v1h1v-1h-1Zm-1-64v64h2v-64h-2Zm1 63h-64v2h64v-2Z" mask="url(#bu)"/><mask id="bv" fill="#fff"><path d="M320 320h64v64h-64v-64Z"/></mask><path fill="#D0D5DD" d="M384 384v1h1v-1h-1Zm-1-64v64h2v-64h-2Zm1 63h-64v2h64v-2Z" mask="url(#bv)"/><mask id="bw" fill="#fff"><path d="M384 320h64v64h-64v-64Z"/></mask><path fill="#D0D5DD" d="M448 384v1h1v-1h-1Zm-1-64v64h2v-64h-2Zm1 63h-64v2h64v-2Z" mask="url(#bw)"/><mask id="bx" fill="#fff"><path d="M448 320h64v64h-64v-64Z"/></mask><path fill="#D0D5DD" d="M512 384v1h1v-1h-1Zm-1-64v64h2v-64h-2Zm1 63h-64v2h64v-2Z" mask="url(#bx)"/><mask id="by" fill="#fff"><path d="M512 320h64v64h-64v-64Z"/></mask><path fill="#D0D5DD" d="M576 384v1h1v-1h-1Zm-1-64v64h2v-64h-2Zm1 63h-64v2h64v-2Z" mask="url(#by)"/><mask id="bz" fill="#fff"><path d="M576 320h64v64h-64v-64Z"/></mask><path fill="#D0D5DD" d="M640 384v1h1v-1h-1Zm-1-64v64h2v-64h-2Zm1 63h-64v2h64v-2Z" mask="url(#bz)"/><mask id="bA" fill="#fff"><path d="M640 320h64v64h-64v-64Z"/></mask><path fill="#D0D5DD" d="M704 384v1h1v-1h-1Zm-1-64v64h2v-64h-2Zm1 63h-64v2h64v-2Z" mask="url(#bA)"/><mask id="bB" fill="#fff"><path d="M704 320h64v64h-64v-64Z"/></mask><path fill="#F2F4F7" d="M704 320h64v64h-64v-64Z"/><path fill="#D0D5DD" d="M768 384v1h1v-1h-1Zm-1-64v64h2v-64h-2Zm1 63h-64v2h64v-2Z" mask="url(#bB)"/><mask id="bC" fill="#fff"><path d="M768 320h64v64h-64v-64Z"/></mask><path fill="#D0D5DD" d="M832 384v1h1v-1h-1Zm-1-64v64h2v-64h-2Zm1 63h-64v2h64v-2Z" mask="url(#bC)"/><mask id="bD" fill="#fff"><path d="M832 320h64v64h-64v-64Z"/></mask><path fill="#D0D5DD" d="M896 384v1h1v-1h-1Zm-1-64v64h2v-64h-2Zm1 63h-64v2h64v-2Z" mask="url(#bD)"/><mask id="bE" fill="#fff"><path d="M896 320h64v64h-64v-64Z"/></mask><path fill="#D0D5DD" d="M960 384v1h1v-1h-1Zm-1-64v64h2v-64h-2Zm1 63h-64v2h64v-2Z" mask="url(#bE)"/><mask id="bF" fill="#fff"><path d="M960 320h64v64h-64v-64Z"/></mask><path fill="#D0D5DD" d="M1024 384v1h1v-1h-1Zm-1-64v64h2v-64h-2Zm1 63h-64v2h64v-2Z" mask="url(#bF)"/><mask id="bG" fill="#fff"><path d="M1024 320h64v64h-64v-64Z"/></mask><path fill="#D0D5DD" d="M1088 384v1h1v-1h-1Zm-1-64v64h2v-64h-2Zm1 63h-64v2h64v-2Z" mask="url(#bG)"/><mask id="bH" fill="#fff"><path d="M1088 320h64v64h-64v-64Z"/></mask><path fill="#F2F4F7" d="M1088 320h64v64h-64v-64Z"/><path fill="#D0D5DD" d="M1152 384v1h1v-1h-1Zm-1-64v64h2v-64h-2Zm1 63h-64v2h64v-2Z" mask="url(#bH)"/><mask id="bI" fill="#fff"><path d="M1152 320h64v64h-64v-64Z"/></mask><path fill="#D0D5DD" d="M1216 384v1h1v-1h-1Zm-1-64v64h2v-64h-2Zm1 63h-64v2h64v-2Z" mask="url(#bI)"/><mask id="bJ" fill="#fff"><path d="M1216 320h64v64h-64v-64Z"/></mask><path fill="#D0D5DD" d="M1280 384v1h1v-1h-1Zm-1-64v64h2v-64h-2Zm1 63h-64v2h64v-2Z" mask="url(#bJ)"/><mask id="bK" fill="#fff"><path d="M1280 320h64v64h-64v-64Z"/></mask><path fill="#F2F4F7" d="M1280 320h64v64h-64v-64Z"/><path fill="#D0D5DD" d="M1344 384v1h1v-1h-1Zm-1-64v64h2v-64h-2Zm1 63h-64v2h64v-2Z" mask="url(#bK)"/><mask id="bL" fill="#fff"><path d="M1344 320h64v64h-64v-64Z"/></mask><path fill="#D0D5DD" d="M1408 384v1h1v-1h-1Zm-1-64v64h2v-64h-2Zm1 63h-64v2h64v-2Z" mask="url(#bL)"/><mask id="bM" fill="#fff"><path d="M1408 320h64v64h-64v-64Z"/></mask><path fill="#D0D5DD" d="M1472 384v1h1v-1h-1Zm-1-64v64h2v-64h-2Zm1 63h-64v2h64v-2Z" mask="url(#bM)"/><mask id="bN" fill="#fff"><path d="M1472 320h64v64h-64v-64Z"/></mask><path fill="#D0D5DD" d="M1536 384v1h1v-1h-1Zm-1-64v64h2v-64h-2Zm1 63h-64v2h64v-2Z" mask="url(#bN)"/><mask id="bO" fill="#fff"><path d="M1536 320h64v64h-64v-64Z"/></mask><path fill="#D0D5DD" d="M1600 384v1h1v-1h-1Zm-1-64v64h2v-64h-2Zm1 63h-64v2h64v-2Z" mask="url(#bO)"/><mask id="bP" fill="#fff"><path d="M1600 320h64v64h-64v-64Z"/></mask><path fill="#D0D5DD" d="M1664 384v1h1v-1h-1Zm-1-64v64h2v-64h-2Zm1 63h-64v2h64v-2Z" mask="url(#bP)"/><mask id="bQ" fill="#fff"><path d="M1664 320h64v64h-64v-64Z"/></mask><path fill="#D0D5DD" d="M1728 384v1h1v-1h-1Zm-1-64v64h2v-64h-2Zm1 63h-64v2h64v-2Z" mask="url(#bQ)"/><mask id="bR" fill="#fff"><path d="M192 384h64v64h-64v-64Z"/></mask><path fill="#D0D5DD" d="M256 448v1h1v-1h-1Zm-1-64v64h2v-64h-2Zm1 63h-64v2h64v-2Z" mask="url(#bR)"/><mask id="bS" fill="#fff"><path d="M256 384h64v64h-64v-64Z"/></mask><path fill="#D0D5DD" d="M320 448v1h1v-1h-1Zm-1-64v64h2v-64h-2Zm1 63h-64v2h64v-2Z" mask="url(#bS)"/><mask id="bT" fill="#fff"><path d="M320 384h64v64h-64v-64Z"/></mask><path fill="#D0D5DD" d="M384 448v1h1v-1h-1Zm-1-64v64h2v-64h-2Zm1 63h-64v2h64v-2Z" mask="url(#bT)"/><mask id="bU" fill="#fff"><path d="M384 384h64v64h-64v-64Z"/></mask><path fill="#D0D5DD" d="M448 448v1h1v-1h-1Zm-1-64v64h2v-64h-2Zm1 63h-64v2h64v-2Z" mask="url(#bU)"/><mask id="bV" fill="#fff"><path d="M448 384h64v64h-64v-64Z"/></mask><path fill="#F2F4F7" d="M448 384h64v64h-64v-64Z"/><path fill="#D0D5DD" d="M512 448v1h1v-1h-1Zm-1-64v64h2v-64h-2Zm1 63h-64v2h64v-2Z" mask="url(#bV)"/><mask id="bW" fill="#fff"><path d="M512 384h64v64h-64v-64Z"/></mask><path fill="#D0D5DD" d="M576 448v1h1v-1h-1Zm-1-64v64h2v-64h-2Zm1 63h-64v2h64v-2Z" mask="url(#bW)"/><mask id="bX" fill="#fff"><path d="M576 384h64v64h-64v-64Z"/></mask><path fill="#D0D5DD" d="M640 448v1h1v-1h-1Zm-1-64v64h2v-64h-2Zm1 63h-64v2h64v-2Z" mask="url(#bX)"/><mask id="bY" fill="#fff"><path d="M640 384h64v64h-64v-64Z"/></mask><path fill="#D0D5DD" d="M704 448v1h1v-1h-1Zm-1-64v64h2v-64h-2Zm1 63h-64v2h64v-2Z" mask="url(#bY)"/><mask id="bZ" fill="#fff"><path d="M704 384h64v64h-64v-64Z"/></mask><path fill="#D0D5DD" d="M768 448v1h1v-1h-1Zm-1-64v64h2v-64h-2Zm1 63h-64v2h64v-2Z" mask="url(#bZ)"/><mask id="ca" fill="#fff"><path d="M768 384h64v64h-64v-64Z"/></mask><path fill="#D0D5DD" d="M832 448v1h1v-1h-1Zm-1-64v64h2v-64h-2Zm1 63h-64v2h64v-2Z" mask="url(#ca)"/><mask id="cb" fill="#fff"><path d="M832 384h64v64h-64v-64Z"/></mask><path fill="#D0D5DD" d="M896 448v1h1v-1h-1Zm-1-64v64h2v-64h-2Zm1 63h-64v2h64v-2Z" mask="url(#cb)"/><mask id="cc" fill="#fff"><path d="M896 384h64v64h-64v-64Z"/></mask><path fill="#F2F4F7" d="M896 384h64v64h-64v-64Z"/><path fill="#D0D5DD" d="M960 448v1h1v-1h-1Zm-1-64v64h2v-64h-2Zm1 63h-64v2h64v-2Z" mask="url(#cc)"/><mask id="cd" fill="#fff"><path d="M960 384h64v64h-64v-64Z"/></mask><path fill="#D0D5DD" d="M1024 448v1h1v-1h-1Zm-1-64v64h2v-64h-2Zm1 63h-64v2h64v-2Z" mask="url(#cd)"/><mask id="ce" fill="#fff"><path d="M1024 384h64v64h-64v-64Z"/></mask><path fill="#D0D5DD" d="M1088 448v1h1v-1h-1Zm-1-64v64h2v-64h-2Zm1 63h-64v2h64v-2Z" mask="url(#ce)"/><mask id="cf" fill="#fff"><path d="M1088 384h64v64h-64v-64Z"/></mask><path fill="#D0D5DD" d="M1152 448v1h1v-1h-1Zm-1-64v64h2v-64h-2Zm1 63h-64v2h64v-2Z" mask="url(#cf)"/><mask id="cg" fill="#fff"><path d="M1152 384h64v64h-64v-64Z"/></mask><path fill="#D0D5DD" d="M1216 448v1h1v-1h-1Zm-1-64v64h2v-64h-2Zm1 63h-64v2h64v-2Z" mask="url(#cg)"/><mask id="ch" fill="#fff"><path d="M1216 384h64v64h-64v-64Z"/></mask><path fill="#D0D5DD" d="M1280 448v1h1v-1h-1Zm-1-64v64h2v-64h-2Zm1 63h-64v2h64v-2Z" mask="url(#ch)"/><mask id="ci" fill="#fff"><path d="M1280 384h64v64h-64v-64Z"/></mask><path fill="#D0D5DD" d="M1344 448v1h1v-1h-1Zm-1-64v64h2v-64h-2Zm1 63h-64v2h64v-2Z" mask="url(#ci)"/><mask id="cj" fill="#fff"><path d="M1344 384h64v64h-64v-64Z"/></mask><path fill="#D0D5DD" d="M1408 448v1h1v-1h-1Zm-1-64v64h2v-64h-2Zm1 63h-64v2h64v-2Z" mask="url(#cj)"/><mask id="ck" fill="#fff"><path d="M1408 384h64v64h-64v-64Z"/></mask><path fill="#D0D5DD" d="M1472 448v1h1v-1h-1Zm-1-64v64h2v-64h-2Zm1 63h-64v2h64v-2Z" mask="url(#ck)"/><mask id="cl" fill="#fff"><path d="M1472 384h64v64h-64v-64Z"/></mask><path fill="#F2F4F7" d="M1472 384h64v64h-64v-64Z"/><path fill="#D0D5DD" d="M1536 448v1h1v-1h-1Zm-1-64v64h2v-64h-2Zm1 63h-64v2h64v-2Z" mask="url(#cl)"/><mask id="cm" fill="#fff"><path d="M1536 384h64v64h-64v-64Z"/></mask><path fill="#D0D5DD" d="M1600 448v1h1v-1h-1Zm-1-64v64h2v-64h-2Zm1 63h-64v2h64v-2Z" mask="url(#cm)"/><mask id="cn" fill="#fff"><path d="M1600 384h64v64h-64v-64Z"/></mask><path fill="#D0D5DD" d="M1664 448v1h1v-1h-1Zm-1-64v64h2v-64h-2Zm1 63h-64v2h64v-2Z" mask="url(#cn)"/><mask id="co" fill="#fff"><path d="M1664 384h64v64h-64v-64Z"/></mask><path fill="#D0D5DD" d="M1728 448v1h1v-1h-1Zm-1-64v64h2v-64h-2Zm1 63h-64v2h64v-2Z" mask="url(#co)"/><mask id="cp" fill="#fff"><path d="M192 448h64v64h-64v-64Z"/></mask><path fill="#D0D5DD" d="M256 512v1h1v-1h-1Zm-1-64v64h2v-64h-2Zm1 63h-64v2h64v-2Z" mask="url(#cp)"/><mask id="cq" fill="#fff"><path d="M256 448h64v64h-64v-64Z"/></mask><path fill="#D0D5DD" d="M320 512v1h1v-1h-1Zm-1-64v64h2v-64h-2Zm1 63h-64v2h64v-2Z" mask="url(#cq)"/><mask id="cr" fill="#fff"><path d="M320 448h64v64h-64v-64Z"/></mask><path fill="#D0D5DD" d="M384 512v1h1v-1h-1Zm-1-64v64h2v-64h-2Zm1 63h-64v2h64v-2Z" mask="url(#cr)"/><mask id="cs" fill="#fff"><path d="M384 448h64v64h-64v-64Z"/></mask><path fill="#D0D5DD" d="M448 512v1h1v-1h-1Zm-1-64v64h2v-64h-2Zm1 63h-64v2h64v-2Z" mask="url(#cs)"/><mask id="ct" fill="#fff"><path d="M448 448h64v64h-64v-64Z"/></mask><path fill="#D0D5DD" d="M512 512v1h1v-1h-1Zm-1-64v64h2v-64h-2Zm1 63h-64v2h64v-2Z" mask="url(#ct)"/><mask id="cu" fill="#fff"><path d="M512 448h64v64h-64v-64Z"/></mask><path fill="#D0D5DD" d="M576 512v1h1v-1h-1Zm-1-64v64h2v-64h-2Zm1 63h-64v2h64v-2Z" mask="url(#cu)"/><mask id="cv" fill="#fff"><path d="M576 448h64v64h-64v-64Z"/></mask><path fill="#D0D5DD" d="M640 512v1h1v-1h-1Zm-1-64v64h2v-64h-2Zm1 63h-64v2h64v-2Z" mask="url(#cv)"/><mask id="cw" fill="#fff"><path d="M640 448h64v64h-64v-64Z"/></mask><path fill="#D0D5DD" d="M704 512v1h1v-1h-1Zm-1-64v64h2v-64h-2Zm1 63h-64v2h64v-2Z" mask="url(#cw)"/><mask id="cx" fill="#fff"><path d="M704 448h64v64h-64v-64Z"/></mask><path fill="#D0D5DD" d="M768 512v1h1v-1h-1Zm-1-64v64h2v-64h-2Zm1 63h-64v2h64v-2Z" mask="url(#cx)"/><mask id="cy" fill="#fff"><path d="M768 448h64v64h-64v-64Z"/></mask><path fill="#F2F4F7" d="M768 448h64v64h-64v-64Z"/><path fill="#D0D5DD" d="M832 512v1h1v-1h-1Zm-1-64v64h2v-64h-2Zm1 63h-64v2h64v-2Z" mask="url(#cy)"/><mask id="cz" fill="#fff"><path d="M832 448h64v64h-64v-64Z"/></mask><path fill="#D0D5DD" d="M896 512v1h1v-1h-1Zm-1-64v64h2v-64h-2Zm1 63h-64v2h64v-2Z" mask="url(#cz)"/><mask id="cA" fill="#fff"><path d="M896 448h64v64h-64v-64Z"/></mask><path fill="#D0D5DD" d="M960 512v1h1v-1h-1Zm-1-64v64h2v-64h-2Zm1 63h-64v2h64v-2Z" mask="url(#cA)"/><mask id="cB" fill="#fff"><path d="M960 448h64v64h-64v-64Z"/></mask><path fill="#D0D5DD" d="M1024 512v1h1v-1h-1Zm-1-64v64h2v-64h-2Zm1 63h-64v2h64v-2Z" mask="url(#cB)"/><mask id="cC" fill="#fff"><path d="M1024 448h64v64h-64v-64Z"/></mask><path fill="#D0D5DD" d="M1088 512v1h1v-1h-1Zm-1-64v64h2v-64h-2Zm1 63h-64v2h64v-2Z" mask="url(#cC)"/><mask id="cD" fill="#fff"><path d="M1088 448h64v64h-64v-64Z"/></mask><path fill="#D0D5DD" d="M1152 512v1h1v-1h-1Zm-1-64v64h2v-64h-2Zm1 63h-64v2h64v-2Z" mask="url(#cD)"/><mask id="cE" fill="#fff"><path d="M1152 448h64v64h-64v-64Z"/></mask><path fill="#F2F4F7" d="M1152 448h64v64h-64v-64Z"/><path fill="#D0D5DD" d="M1216 512v1h1v-1h-1Zm-1-64v64h2v-64h-2Zm1 63h-64v2h64v-2Z" mask="url(#cE)"/><mask id="cF" fill="#fff"><path d="M1216 448h64v64h-64v-64Z"/></mask><path fill="#D0D5DD" d="M1280 512v1h1v-1h-1Zm-1-64v64h2v-64h-2Zm1 63h-64v2h64v-2Z" mask="url(#cF)"/><mask id="cG" fill="#fff"><path d="M1280 448h64v64h-64v-64Z"/></mask><path fill="#D0D5DD" d="M1344 512v1h1v-1h-1Zm-1-64v64h2v-64h-2Zm1 63h-64v2h64v-2Z" mask="url(#cG)"/><mask id="cH" fill="#fff"><path d="M1344 448h64v64h-64v-64Z"/></mask><path fill="#D0D5DD" d="M1408 512v1h1v-1h-1Zm-1-64v64h2v-64h-2Zm1 63h-64v2h64v-2Z" mask="url(#cH)"/><mask id="cI" fill="#fff"><path d="M1408 448h64v64h-64v-64Z"/></mask><path fill="#D0D5DD" d="M1472 512v1h1v-1h-1Zm-1-64v64h2v-64h-2Zm1 63h-64v2h64v-2Z" mask="url(#cI)"/><mask id="cJ" fill="#fff"><path d="M1472 448h64v64h-64v-64Z"/></mask><path fill="#D0D5DD" d="M1536 512v1h1v-1h-1Zm-1-64v64h2v-64h-2Zm1 63h-64v2h64v-2Z" mask="url(#cJ)"/><mask id="cK" fill="#fff"><path d="M1536 448h64v64h-64v-64Z"/></mask><path fill="#D0D5DD" d="M1600 512v1h1v-1h-1Zm-1-64v64h2v-64h-2Zm1 63h-64v2h64v-2Z" mask="url(#cK)"/><mask id="cL" fill="#fff"><path d="M1600 448h64v64h-64v-64Z"/></mask><path fill="#D0D5DD" d="M1664 512v1h1v-1h-1Zm-1-64v64h2v-64h-2Zm1 63h-64v2h64v-2Z" mask="url(#cL)"/><mask id="cM" fill="#fff"><path d="M1664 448h64v64h-64v-64Z"/></mask><path fill="#F2F4F7" d="M1664 448h64v64h-64v-64Z"/><path fill="#D0D5DD" d="M1728 512v1h1v-1h-1Zm-1-64v64h2v-64h-2Zm1 63h-64v2h64v-2Z" mask="url(#cM)"/><mask id="cN" fill="#fff"><path d="M192 512h64v64h-64v-64Z"/></mask><path fill="#D0D5DD" d="M256 576v1h1v-1h-1Zm-1-64v64h2v-64h-2Zm1 63h-64v2h64v-2Z" mask="url(#cN)"/><mask id="cO" fill="#fff"><path d="M256 512h64v64h-64v-64Z"/></mask><path fill="#D0D5DD" d="M320 576v1h1v-1h-1Zm-1-64v64h2v-64h-2Zm1 63h-64v2h64v-2Z" mask="url(#cO)"/><mask id="cP" fill="#fff"><path d="M320 512h64v64h-64v-64Z"/></mask><path fill="#F2F4F7" d="M320 512h64v64h-64v-64Z"/><path fill="#D0D5DD" d="M384 576v1h1v-1h-1Zm-1-64v64h2v-64h-2Zm1 63h-64v2h64v-2Z" mask="url(#cP)"/><mask id="cQ" fill="#fff"><path d="M384 512h64v64h-64v-64Z"/></mask><path fill="#D0D5DD" d="M448 576v1h1v-1h-1Zm-1-64v64h2v-64h-2Zm1 63h-64v2h64v-2Z" mask="url(#cQ)"/><mask id="cR" fill="#fff"><path d="M448 512h64v64h-64v-64Z"/></mask><path fill="#D0D5DD" d="M512 576v1h1v-1h-1Zm-1-64v64h2v-64h-2Zm1 63h-64v2h64v-2Z" mask="url(#cR)"/><mask id="cS" fill="#fff"><path d="M512 512h64v64h-64v-64Z"/></mask><path fill="#D0D5DD" d="M576 576v1h1v-1h-1Zm-1-64v64h2v-64h-2Zm1 63h-64v2h64v-2Z" mask="url(#cS)"/><mask id="cT" fill="#fff"><path d="M576 512h64v64h-64v-64Z"/></mask><path fill="#D0D5DD" d="M640 576v1h1v-1h-1Zm-1-64v64h2v-64h-2Zm1 63h-64v2h64v-2Z" mask="url(#cT)"/><mask id="cU" fill="#fff"><path d="M640 512h64v64h-64v-64Z"/></mask><path fill="#F2F4F7" d="M640 512h64v64h-64v-64Z"/><path fill="#D0D5DD" d="M704 576v1h1v-1h-1Zm-1-64v64h2v-64h-2Zm1 63h-64v2h64v-2Z" mask="url(#cU)"/><mask id="cV" fill="#fff"><path d="M704 512h64v64h-64v-64Z"/></mask><path fill="#D0D5DD" d="M768 576v1h1v-1h-1Zm-1-64v64h2v-64h-2Zm1 63h-64v2h64v-2Z" mask="url(#cV)"/><mask id="cW" fill="#fff"><path d="M768 512h64v64h-64v-64Z"/></mask><path fill="#D0D5DD" d="M832 576v1h1v-1h-1Zm-1-64v64h2v-64h-2Zm1 63h-64v2h64v-2Z" mask="url(#cW)"/><mask id="cX" fill="#fff"><path d="M832 512h64v64h-64v-64Z"/></mask><path fill="#D0D5DD" d="M896 576v1h1v-1h-1Zm-1-64v64h2v-64h-2Zm1 63h-64v2h64v-2Z" mask="url(#cX)"/><mask id="cY" fill="#fff"><path d="M896 512h64v64h-64v-64Z"/></mask><path fill="#D0D5DD" d="M960 576v1h1v-1h-1Zm-1-64v64h2v-64h-2Zm1 63h-64v2h64v-2Z" mask="url(#cY)"/><mask id="cZ" fill="#fff"><path d="M960 512h64v64h-64v-64Z"/></mask><path fill="#D0D5DD" d="M1024 576v1h1v-1h-1Zm-1-64v64h2v-64h-2Zm1 63h-64v2h64v-2Z" mask="url(#cZ)"/><mask id="da" fill="#fff"><path d="M1024 512h64v64h-64v-64Z"/></mask><path fill="#D0D5DD" d="M1088 576v1h1v-1h-1Zm-1-64v64h2v-64h-2Zm1 63h-64v2h64v-2Z" mask="url(#da)"/><mask id="db" fill="#fff"><path d="M1088 512h64v64h-64v-64Z"/></mask><path fill="#D0D5DD" d="M1152 576v1h1v-1h-1Zm-1-64v64h2v-64h-2Zm1 63h-64v2h64v-2Z" mask="url(#db)"/><mask id="dc" fill="#fff"><path d="M1152 512h64v64h-64v-64Z"/></mask><path fill="#D0D5DD" d="M1216 576v1h1v-1h-1Zm-1-64v64h2v-64h-2Zm1 63h-64v2h64v-2Z" mask="url(#dc)"/><mask id="dd" fill="#fff"><path d="M1216 512h64v64h-64v-64Z"/></mask><path fill="#D0D5DD" d="M1280 576v1h1v-1h-1Zm-1-64v64h2v-64h-2Zm1 63h-64v2h64v-2Z" mask="url(#dd)"/><mask id="de" fill="#fff"><path d="M1280 512h64v64h-64v-64Z"/></mask><path fill="#D0D5DD" d="M1344 576v1h1v-1h-1Zm-1-64v64h2v-64h-2Zm1 63h-64v2h64v-2Z" mask="url(#de)"/><mask id="df" fill="#fff"><path d="M1344 512h64v64h-64v-64Z"/></mask><path fill="#F2F4F7" d="M1344 512h64v64h-64v-64Z"/><path fill="#D0D5DD" d="M1408 576v1h1v-1h-1Zm-1-64v64h2v-64h-2Zm1 63h-64v2h64v-2Z" mask="url(#df)"/><mask id="dg" fill="#fff"><path d="M1408 512h64v64h-64v-64Z"/></mask><path fill="#D0D5DD" d="M1472 576v1h1v-1h-1Zm-1-64v64h2v-64h-2Zm1 63h-64v2h64v-2Z" mask="url(#dg)"/><mask id="dh" fill="#fff"><path d="M1472 512h64v64h-64v-64Z"/></mask><path fill="#D0D5DD" d="M1536 576v1h1v-1h-1Zm-1-64v64h2v-64h-2Zm1 63h-64v2h64v-2Z" mask="url(#dh)"/><mask id="di" fill="#fff"><path d="M1536 512h64v64h-64v-64Z"/></mask><path fill="#D0D5DD" d="M1600 576v1h1v-1h-1Zm-1-64v64h2v-64h-2Zm1 63h-64v2h64v-2Z" mask="url(#di)"/><mask id="dj" fill="#fff"><path d="M1600 512h64v64h-64v-64Z"/></mask><path fill="#D0D5DD" d="M1664 576v1h1v-1h-1Zm-1-64v64h2v-64h-2Zm1 63h-64v2h64v-2Z" mask="url(#dj)"/><mask id="dk" fill="#fff"><path d="M1664 512h64v64h-64v-64Z"/></mask><path fill="#D0D5DD" d="M1728 576v1h1v-1h-1Zm-1-64v64h2v-64h-2Zm1 63h-64v2h64v-2Z" mask="url(#dk)"/><mask id="dl" fill="#fff"><path d="M192 576h64v64h-64v-64Z"/></mask><path fill="#D0D5DD" d="M256 640v1h1v-1h-1Zm-1-64v64h2v-64h-2Zm1 63h-64v2h64v-2Z" mask="url(#dl)"/><mask id="dm" fill="#fff"><path d="M256 576h64v64h-64v-64Z"/></mask><path fill="#D0D5DD" d="M320 640v1h1v-1h-1Zm-1-64v64h2v-64h-2Zm1 63h-64v2h64v-2Z" mask="url(#dm)"/><mask id="dn" fill="#fff"><path d="M320 576h64v64h-64v-64Z"/></mask><path fill="#D0D5DD" d="M384 640v1h1v-1h-1Zm-1-64v64h2v-64h-2Zm1 63h-64v2h64v-2Z" mask="url(#dn)"/><mask id="do" fill="#fff"><path d="M384 576h64v64h-64v-64Z"/></mask><path fill="#D0D5DD" d="M448 640v1h1v-1h-1Zm-1-64v64h2v-64h-2Zm1 63h-64v2h64v-2Z" mask="url(#do)"/><mask id="dp" fill="#fff"><path d="M448 576h64v64h-64v-64Z"/></mask><path fill="#F2F4F7" d="M448 576h64v64h-64v-64Z"/><path fill="#D0D5DD" d="M512 640v1h1v-1h-1Zm-1-64v64h2v-64h-2Zm1 63h-64v2h64v-2Z" mask="url(#dp)"/><mask id="dq" fill="#fff"><path d="M512 576h64v64h-64v-64Z"/></mask><path fill="#D0D5DD" d="M576 640v1h1v-1h-1Zm-1-64v64h2v-64h-2Zm1 63h-64v2h64v-2Z" mask="url(#dq)"/><mask id="dr" fill="#fff"><path d="M576 576h64v64h-64v-64Z"/></mask><path fill="#D0D5DD" d="M640 640v1h1v-1h-1Zm-1-64v64h2v-64h-2Zm1 63h-64v2h64v-2Z" mask="url(#dr)"/><mask id="ds" fill="#fff"><path d="M640 576h64v64h-64v-64Z"/></mask><path fill="#D0D5DD" d="M704 640v1h1v-1h-1Zm-1-64v64h2v-64h-2Zm1 63h-64v2h64v-2Z" mask="url(#ds)"/><mask id="dt" fill="#fff"><path d="M704 576h64v64h-64v-64Z"/></mask><path fill="#D0D5DD" d="M768 640v1h1v-1h-1Zm-1-64v64h2v-64h-2Zm1 63h-64v2h64v-2Z" mask="url(#dt)"/><mask id="du" fill="#fff"><path d="M768 576h64v64h-64v-64Z"/></mask><path fill="#D0D5DD" d="M832 640v1h1v-1h-1Zm-1-64v64h2v-64h-2Zm1 63h-64v2h64v-2Z" mask="url(#du)"/><mask id="dv" fill="#fff"><path d="M832 576h64v64h-64v-64Z"/></mask><path fill="#D0D5DD" d="M896 640v1h1v-1h-1Zm-1-64v64h2v-64h-2Zm1 63h-64v2h64v-2Z" mask="url(#dv)"/><mask id="dw" fill="#fff"><path d="M896 576h64v64h-64v-64Z"/></mask><path fill="#F2F4F7" d="M896 576h64v64h-64v-64Z"/><path fill="#D0D5DD" d="M960 640v1h1v-1h-1Zm-1-64v64h2v-64h-2Zm1 63h-64v2h64v-2Z" mask="url(#dw)"/><mask id="dx" fill="#fff"><path d="M960 576h64v64h-64v-64Z"/></mask><path fill="#D0D5DD" d="M1024 640v1h1v-1h-1Zm-1-64v64h2v-64h-2Zm1 63h-64v2h64v-2Z" mask="url(#dx)"/><mask id="dy" fill="#fff"><path d="M1024 576h64v64h-64v-64Z"/></mask><path fill="#D0D5DD" d="M1088 640v1h1v-1h-1Zm-1-64v64h2v-64h-2Zm1 63h-64v2h64v-2Z" mask="url(#dy)"/><mask id="dz" fill="#fff"><path d="M1088 576h64v64h-64v-64Z"/></mask><path fill="#D0D5DD" d="M1152 640v1h1v-1h-1Zm-1-64v64h2v-64h-2Zm1 63h-64v2h64v-2Z" mask="url(#dz)"/><mask id="dA" fill="#fff"><path d="M1152 576h64v64h-64v-64Z"/></mask><path fill="#D0D5DD" d="M1216 640v1h1v-1h-1Zm-1-64v64h2v-64h-2Zm1 63h-64v2h64v-2Z" mask="url(#dA)"/><mask id="dB" fill="#fff"><path d="M1216 576h64v64h-64v-64Z"/></mask><path fill="#D0D5DD" d="M1280 640v1h1v-1h-1Zm-1-64v64h2v-64h-2Zm1 63h-64v2h64v-2Z" mask="url(#dB)"/><mask id="dC" fill="#fff"><path d="M1280 576h64v64h-64v-64Z"/></mask><path fill="#D0D5DD" d="M1344 640v1h1v-1h-1Zm-1-64v64h2v-64h-2Zm1 63h-64v2h64v-2Z" mask="url(#dC)"/><mask id="dD" fill="#fff"><path d="M1344 576h64v64h-64v-64Z"/></mask><path fill="#D0D5DD" d="M1408 640v1h1v-1h-1Zm-1-64v64h2v-64h-2Zm1 63h-64v2h64v-2Z" mask="url(#dD)"/><mask id="dE" fill="#fff"><path d="M1408 576h64v64h-64v-64Z"/></mask><path fill="#D0D5DD" d="M1472 640v1h1v-1h-1Zm-1-64v64h2v-64h-2Zm1 63h-64v2h64v-2Z" mask="url(#dE)"/><mask id="dF" fill="#fff"><path d="M1472 576h64v64h-64v-64Z"/></mask><path fill="#D0D5DD" d="M1536 640v1h1v-1h-1Zm-1-64v64h2v-64h-2Zm1 63h-64v2h64v-2Z" mask="url(#dF)"/><mask id="dG" fill="#fff"><path d="M1536 576h64v64h-64v-64Z"/></mask><path fill="#D0D5DD" d="M1600 640v1h1v-1h-1Zm-1-64v64h2v-64h-2Zm1 63h-64v2h64v-2Z" mask="url(#dG)"/><mask id="dH" fill="#fff"><path d="M1600 576h64v64h-64v-64Z"/></mask><path fill="#F2F4F7" d="M1600 576h64v64h-64v-64Z"/><path fill="#D0D5DD" d="M1664 640v1h1v-1h-1Zm-1-64v64h2v-64h-2Zm1 63h-64v2h64v-2Z" mask="url(#dH)"/><mask id="dI" fill="#fff"><path d="M1664 576h64v64h-64v-64Z"/></mask><path fill="#D0D5DD" d="M1728 640v1h1v-1h-1Zm-1-64v64h2v-64h-2Zm1 63h-64v2h64v-2Z" mask="url(#dI)"/><mask id="dJ" fill="#fff"><path d="M192 640h64v64h-64v-64Z"/></mask><path fill="#F2F4F7" d="M192 640h64v64h-64v-64Z"/><path fill="#D0D5DD" d="M256 704v1h1v-1h-1Zm-1-64v64h2v-64h-2Zm1 63h-64v2h64v-2Z" mask="url(#dJ)"/><mask id="dK" fill="#fff"><path d="M256 640h64v64h-64v-64Z"/></mask><path fill="#D0D5DD" d="M320 704v1h1v-1h-1Zm-1-64v64h2v-64h-2Zm1 63h-64v2h64v-2Z" mask="url(#dK)"/><mask id="dL" fill="#fff"><path d="M320 640h64v64h-64v-64Z"/></mask><path fill="#D0D5DD" d="M384 704v1h1v-1h-1Zm-1-64v64h2v-64h-2Zm1 63h-64v2h64v-2Z" mask="url(#dL)"/><mask id="dM" fill="#fff"><path d="M384 640h64v64h-64v-64Z"/></mask><path fill="#D0D5DD" d="M448 704v1h1v-1h-1Zm-1-64v64h2v-64h-2Zm1 63h-64v2h64v-2Z" mask="url(#dM)"/><mask id="dN" fill="#fff"><path d="M448 640h64v64h-64v-64Z"/></mask><path fill="#D0D5DD" d="M512 704v1h1v-1h-1Zm-1-64v64h2v-64h-2Zm1 63h-64v2h64v-2Z" mask="url(#dN)"/><mask id="dO" fill="#fff"><path d="M512 640h64v64h-64v-64Z"/></mask><path fill="#D0D5DD" d="M576 704v1h1v-1h-1Zm-1-64v64h2v-64h-2Zm1 63h-64v2h64v-2Z" mask="url(#dO)"/><mask id="dP" fill="#fff"><path d="M576 640h64v64h-64v-64Z"/></mask><path fill="#D0D5DD" d="M640 704v1h1v-1h-1Zm-1-64v64h2v-64h-2Zm1 63h-64v2h64v-2Z" mask="url(#dP)"/><mask id="dQ" fill="#fff"><path d="M640 640h64v64h-64v-64Z"/></mask><path fill="#D0D5DD" d="M704 704v1h1v-1h-1Zm-1-64v64h2v-64h-2Zm1 63h-64v2h64v-2Z" mask="url(#dQ)"/><mask id="dR" fill="#fff"><path d="M704 640h64v64h-64v-64Z"/></mask><path fill="#D0D5DD" d="M768 704v1h1v-1h-1Zm-1-64v64h2v-64h-2Zm1 63h-64v2h64v-2Z" mask="url(#dR)"/><mask id="dS" fill="#fff"><path d="M768 640h64v64h-64v-64Z"/></mask><path fill="#F2F4F7" d="M768 640h64v64h-64v-64Z"/><path fill="#D0D5DD" d="M832 704v1h1v-1h-1Zm-1-64v64h2v-64h-2Zm1 63h-64v2h64v-2Z" mask="url(#dS)"/><mask id="dT" fill="#fff"><path d="M832 640h64v64h-64v-64Z"/></mask><path fill="#D0D5DD" d="M896 704v1h1v-1h-1Zm-1-64v64h2v-64h-2Zm1 63h-64v2h64v-2Z" mask="url(#dT)"/><mask id="dU" fill="#fff"><path d="M896 640h64v64h-64v-64Z"/></mask><path fill="#D0D5DD" d="M960 704v1h1v-1h-1Zm-1-64v64h2v-64h-2Zm1 63h-64v2h64v-2Z" mask="url(#dU)"/><mask id="dV" fill="#fff"><path d="M960 640h64v64h-64v-64Z"/></mask><path fill="#D0D5DD" d="M1024 704v1h1v-1h-1Zm-1-64v64h2v-64h-2Zm1 63h-64v2h64v-2Z" mask="url(#dV)"/><mask id="dW" fill="#fff"><path d="M1024 640h64v64h-64v-64Z"/></mask><path fill="#D0D5DD" d="M1088 704v1h1v-1h-1Zm-1-64v64h2v-64h-2Zm1 63h-64v2h64v-2Z" mask="url(#dW)"/><mask id="dX" fill="#fff"><path d="M1088 640h64v64h-64v-64Z"/></mask><path fill="#D0D5DD" d="M1152 704v1h1v-1h-1Zm-1-64v64h2v-64h-2Zm1 63h-64v2h64v-2Z" mask="url(#dX)"/><mask id="dY" fill="#fff"><path d="M1152 640h64v64h-64v-64Z"/></mask><path fill="#D0D5DD" d="M1216 704v1h1v-1h-1Zm-1-64v64h2v-64h-2Zm1 63h-64v2h64v-2Z" mask="url(#dY)"/><mask id="dZ" fill="#fff"><path d="M1216 640h64v64h-64v-64Z"/></mask><path fill="#F2F4F7" d="M1216 640h64v64h-64v-64Z"/><path fill="#D0D5DD" d="M1280 704v1h1v-1h-1Zm-1-64v64h2v-64h-2Zm1 63h-64v2h64v-2Z" mask="url(#dZ)"/><mask id="ea" fill="#fff"><path d="M1280 640h64v64h-64v-64Z"/></mask><path fill="#D0D5DD" d="M1344 704v1h1v-1h-1Zm-1-64v64h2v-64h-2Zm1 63h-64v2h64v-2Z" mask="url(#ea)"/><mask id="eb" fill="#fff"><path d="M1344 640h64v64h-64v-64Z"/></mask><path fill="#D0D5DD" d="M1408 704v1h1v-1h-1Zm-1-64v64h2v-64h-2Zm1 63h-64v2h64v-2Z" mask="url(#eb)"/><mask id="ec" fill="#fff"><path d="M1408 640h64v64h-64v-64Z"/></mask><path fill="#D0D5DD" d="M1472 704v1h1v-1h-1Zm-1-64v64h2v-64h-2Zm1 63h-64v2h64v-2Z" mask="url(#ec)"/><mask id="ed" fill="#fff"><path d="M1472 640h64v64h-64v-64Z"/></mask><path fill="#D0D5DD" d="M1536 704v1h1v-1h-1Zm-1-64v64h2v-64h-2Zm1 63h-64v2h64v-2Z" mask="url(#ed)"/><mask id="ee" fill="#fff"><path d="M1536 640h64v64h-64v-64Z"/></mask><path fill="#D0D5DD" d="M1600 704v1h1v-1h-1Zm-1-64v64h2v-64h-2Zm1 63h-64v2h64v-2Z" mask="url(#ee)"/><mask id="ef" fill="#fff"><path d="M1600 640h64v64h-64v-64Z"/></mask><path fill="#D0D5DD" d="M1664 704v1h1v-1h-1Zm-1-64v64h2v-64h-2Zm1 63h-64v2h64v-2Z" mask="url(#ef)"/><mask id="eg" fill="#fff"><path d="M1664 640h64v64h-64v-64Z"/></mask><path fill="#D0D5DD" d="M1728 704v1h1v-1h-1Zm-1-64v64h2v-64h-2Zm1 63h-64v2h64v-2Z" mask="url(#eg)"/><mask id="eh" fill="#fff"><path d="M192 704h64v64h-64v-64Z"/></mask><path fill="#D0D5DD" d="M256 768v1h1v-1h-1Zm-1-64v64h2v-64h-2Zm1 63h-64v2h64v-2Z" mask="url(#eh)"/><mask id="ei" fill="#fff"><path d="M256 704h64v64h-64v-64Z"/></mask><path fill="#D0D5DD" d="M320 768v1h1v-1h-1Zm-1-64v64h2v-64h-2Zm1 63h-64v2h64v-2Z" mask="url(#ei)"/><mask id="ej" fill="#fff"><path d="M320 704h64v64h-64v-64Z"/></mask><path fill="#D0D5DD" d="M384 768v1h1v-1h-1Zm-1-64v64h2v-64h-2Zm1 63h-64v2h64v-2Z" mask="url(#ej)"/><mask id="ek" fill="#fff"><path d="M384 704h64v64h-64v-64Z"/></mask><path fill="#F2F4F7" d="M384 704h64v64h-64v-64Z"/><path fill="#D0D5DD" d="M448 768v1h1v-1h-1Zm-1-64v64h2v-64h-2Zm1 63h-64v2h64v-2Z" mask="url(#ek)"/><mask id="el" fill="#fff"><path d="M448 704h64v64h-64v-64Z"/></mask><path fill="#D0D5DD" d="M512 768v1h1v-1h-1Zm-1-64v64h2v-64h-2Zm1 63h-64v2h64v-2Z" mask="url(#el)"/><mask id="em" fill="#fff"><path d="M512 704h64v64h-64v-64Z"/></mask><path fill="#D0D5DD" d="M576 768v1h1v-1h-1Zm-1-64v64h2v-64h-2Zm1 63h-64v2h64v-2Z" mask="url(#em)"/><mask id="en" fill="#fff"><path d="M576 704h64v64h-64v-64Z"/></mask><path fill="#D0D5DD" d="M640 768v1h1v-1h-1Zm-1-64v64h2v-64h-2Zm1 63h-64v2h64v-2Z" mask="url(#en)"/><mask id="eo" fill="#fff"><path d="M640 704h64v64h-64v-64Z"/></mask><path fill="#D0D5DD" d="M704 768v1h1v-1h-1Zm-1-64v64h2v-64h-2Zm1 63h-64v2h64v-2Z" mask="url(#eo)"/><mask id="ep" fill="#fff"><path d="M704 704h64v64h-64v-64Z"/></mask><path fill="#D0D5DD" d="M768 768v1h1v-1h-1Zm-1-64v64h2v-64h-2Zm1 63h-64v2h64v-2Z" mask="url(#ep)"/><mask id="eq" fill="#fff"><path d="M768 704h64v64h-64v-64Z"/></mask><path fill="#D0D5DD" d="M832 768v1h1v-1h-1Zm-1-64v64h2v-64h-2Zm1 63h-64v2h64v-2Z" mask="url(#eq)"/><mask id="er" fill="#fff"><path d="M832 704h64v64h-64v-64Z"/></mask><path fill="#D0D5DD" d="M896 768v1h1v-1h-1Zm-1-64v64h2v-64h-2Zm1 63h-64v2h64v-2Z" mask="url(#er)"/><mask id="es" fill="#fff"><path d="M896 704h64v64h-64v-64Z"/></mask><path fill="#D0D5DD" d="M960 768v1h1v-1h-1Zm-1-64v64h2v-64h-2Zm1 63h-64v2h64v-2Z" mask="url(#es)"/><mask id="et" fill="#fff"><path d="M960 704h64v64h-64v-64Z"/></mask><path fill="#D0D5DD" d="M1024 768v1h1v-1h-1Zm-1-64v64h2v-64h-2Zm1 63h-64v2h64v-2Z" mask="url(#et)"/><mask id="eu" fill="#fff"><path d="M1024 704h64v64h-64v-64Z"/></mask><path fill="#F2F4F7" d="M1024 704h64v64h-64v-64Z"/><path fill="#D0D5DD" d="M1088 768v1h1v-1h-1Zm-1-64v64h2v-64h-2Zm1 63h-64v2h64v-2Z" mask="url(#eu)"/><mask id="ev" fill="#fff"><path d="M1088 704h64v64h-64v-64Z"/></mask><path fill="#D0D5DD" d="M1152 768v1h1v-1h-1Zm-1-64v64h2v-64h-2Zm1 63h-64v2h64v-2Z" mask="url(#ev)"/><mask id="ew" fill="#fff"><path d="M1152 704h64v64h-64v-64Z"/></mask><path fill="#D0D5DD" d="M1216 768v1h1v-1h-1Zm-1-64v64h2v-64h-2Zm1 63h-64v2h64v-2Z" mask="url(#ew)"/><mask id="ex" fill="#fff"><path d="M1216 704h64v64h-64v-64Z"/></mask><path fill="#D0D5DD" d="M1280 768v1h1v-1h-1Zm-1-64v64h2v-64h-2Zm1 63h-64v2h64v-2Z" mask="url(#ex)"/><mask id="ey" fill="#fff"><path d="M1280 704h64v64h-64v-64Z"/></mask><path fill="#D0D5DD" d="M1344 768v1h1v-1h-1Zm-1-64v64h2v-64h-2Zm1 63h-64v2h64v-2Z" mask="url(#ey)"/><mask id="ez" fill="#fff"><path d="M1344 704h64v64h-64v-64Z"/></mask><path fill="#F2F4F7" d="M1344 704h64v64h-64v-64Z"/><path fill="#D0D5DD" d="M1408 768v1h1v-1h-1Zm-1-64v64h2v-64h-2Zm1 63h-64v2h64v-2Z" mask="url(#ez)"/><mask id="eA" fill="#fff"><path d="M1408 704h64v64h-64v-64Z"/></mask><path fill="#D0D5DD" d="M1472 768v1h1v-1h-1Zm-1-64v64h2v-64h-2Zm1 63h-64v2h64v-2Z" mask="url(#eA)"/><mask id="eB" fill="#fff"><path d="M1472 704h64v64h-64v-64Z"/></mask><path fill="#D0D5DD" d="M1536 768v1h1v-1h-1Zm-1-64v64h2v-64h-2Zm1 63h-64v2h64v-2Z" mask="url(#eB)"/><mask id="eC" fill="#fff"><path d="M1536 704h64v64h-64v-64Z"/></mask><path fill="#D0D5DD" d="M1600 768v1h1v-1h-1Zm-1-64v64h2v-64h-2Zm1 63h-64v2h64v-2Z" mask="url(#eC)"/><mask id="eD" fill="#fff"><path d="M1600 704h64v64h-64v-64Z"/></mask><path fill="#D0D5DD" d="M1664 768v1h1v-1h-1Zm-1-64v64h2v-64h-2Zm1 63h-64v2h64v-2Z" mask="url(#eD)"/><mask id="eE" fill="#fff"><path d="M1664 704h64v64h-64v-64Z"/></mask><path fill="#D0D5DD" d="M1728 768v1h1v-1h-1Zm-1-64v64h2v-64h-2Zm1 63h-64v2h64v-2Z" mask="url(#eE)"/><mask id="eF" fill="#fff"><path d="M192 768h64v64h-64v-64Z"/></mask><path fill="#D0D5DD" d="M256 832v1h1v-1h-1Zm-1-64v64h2v-64h-2Zm1 63h-64v2h64v-2Z" mask="url(#eF)"/><mask id="eG" fill="#fff"><path d="M256 768h64v64h-64v-64Z"/></mask><path fill="#F2F4F7" d="M256 768h64v64h-64v-64Z"/><path fill="#D0D5DD" d="M320 832v1h1v-1h-1Zm-1-64v64h2v-64h-2Zm1 63h-64v2h64v-2Z" mask="url(#eG)"/><mask id="eH" fill="#fff"><path d="M320 768h64v64h-64v-64Z"/></mask><path fill="#D0D5DD" d="M384 832v1h1v-1h-1Zm-1-64v64h2v-64h-2Zm1 63h-64v2h64v-2Z" mask="url(#eH)"/><mask id="eI" fill="#fff"><path d="M384 768h64v64h-64v-64Z"/></mask><path fill="#D0D5DD" d="M448 832v1h1v-1h-1Zm-1-64v64h2v-64h-2Zm1 63h-64v2h64v-2Z" mask="url(#eI)"/><mask id="eJ" fill="#fff"><path d="M448 768h64v64h-64v-64Z"/></mask><path fill="#D0D5DD" d="M512 832v1h1v-1h-1Zm-1-64v64h2v-64h-2Zm1 63h-64v2h64v-2Z" mask="url(#eJ)"/><mask id="eK" fill="#fff"><path d="M512 768h64v64h-64v-64Z"/></mask><path fill="#D0D5DD" d="M576 832v1h1v-1h-1Zm-1-64v64h2v-64h-2Zm1 63h-64v2h64v-2Z" mask="url(#eK)"/><mask id="eL" fill="#fff"><path d="M576 768h64v64h-64v-64Z"/></mask><path fill="#D0D5DD" d="M640 832v1h1v-1h-1Zm-1-64v64h2v-64h-2Zm1 63h-64v2h64v-2Z" mask="url(#eL)"/><mask id="eM" fill="#fff"><path d="M640 768h64v64h-64v-64Z"/></mask><path fill="#D0D5DD" d="M704 832v1h1v-1h-1Zm-1-64v64h2v-64h-2Zm1 63h-64v2h64v-2Z" mask="url(#eM)"/><mask id="eN" fill="#fff"><path d="M704 768h64v64h-64v-64Z"/></mask><path fill="#D0D5DD" d="M768 832v1h1v-1h-1Zm-1-64v64h2v-64h-2Zm1 63h-64v2h64v-2Z" mask="url(#eN)"/><mask id="eO" fill="#fff"><path d="M768 768h64v64h-64v-64Z"/></mask><path fill="#F2F4F7" d="M768 768h64v64h-64v-64Z"/><path fill="#D0D5DD" d="M832 832v1h1v-1h-1Zm-1-64v64h2v-64h-2Zm1 63h-64v2h64v-2Z" mask="url(#eO)"/><mask id="eP" fill="#fff"><path d="M832 768h64v64h-64v-64Z"/></mask><path fill="#D0D5DD" d="M896 832v1h1v-1h-1Zm-1-64v64h2v-64h-2Zm1 63h-64v2h64v-2Z" mask="url(#eP)"/><mask id="eQ" fill="#fff"><path d="M896 768h64v64h-64v-64Z"/></mask><path fill="#D0D5DD" d="M960 832v1h1v-1h-1Zm-1-64v64h2v-64h-2Zm1 63h-64v2h64v-2Z" mask="url(#eQ)"/><mask id="eR" fill="#fff"><path d="M960 768h64v64h-64v-64Z"/></mask><path fill="#D0D5DD" d="M1024 832v1h1v-1h-1Zm-1-64v64h2v-64h-2Zm1 63h-64v2h64v-2Z" mask="url(#eR)"/><mask id="eS" fill="#fff"><path d="M1024 768h64v64h-64v-64Z"/></mask><path fill="#D0D5DD" d="M1088 832v1h1v-1h-1Zm-1-64v64h2v-64h-2Zm1 63h-64v2h64v-2Z" mask="url(#eS)"/><mask id="eT" fill="#fff"><path d="M1088 768h64v64h-64v-64Z"/></mask><path fill="#D0D5DD" d="M1152 832v1h1v-1h-1Zm-1-64v64h2v-64h-2Zm1 63h-64v2h64v-2Z" mask="url(#eT)"/><mask id="eU" fill="#fff"><path d="M1152 768h64v64h-64v-64Z"/></mask><path fill="#D0D5DD" d="M1216 832v1h1v-1h-1Zm-1-64v64h2v-64h-2Zm1 63h-64v2h64v-2Z" mask="url(#eU)"/><mask id="eV" fill="#fff"><path d="M1216 768h64v64h-64v-64Z"/></mask><path fill="#D0D5DD" d="M1280 832v1h1v-1h-1Zm-1-64v64h2v-64h-2Zm1 63h-64v2h64v-2Z" mask="url(#eV)"/><mask id="eW" fill="#fff"><path d="M1280 768h64v64h-64v-64Z"/></mask><path fill="#D0D5DD" d="M1344 832v1h1v-1h-1Zm-1-64v64h2v-64h-2Zm1 63h-64v2h64v-2Z" mask="url(#eW)"/><mask id="eX" fill="#fff"><path d="M1344 768h64v64h-64v-64Z"/></mask><path fill="#D0D5DD" d="M1408 832v1h1v-1h-1Zm-1-64v64h2v-64h-2Zm1 63h-64v2h64v-2Z" mask="url(#eX)"/><mask id="eY" fill="#fff"><path d="M1408 768h64v64h-64v-64Z"/></mask><path fill="#D0D5DD" d="M1472 832v1h1v-1h-1Zm-1-64v64h2v-64h-2Zm1 63h-64v2h64v-2Z" mask="url(#eY)"/><mask id="eZ" fill="#fff"><path d="M1472 768h64v64h-64v-64Z"/></mask><path fill="#D0D5DD" d="M1536 832v1h1v-1h-1Zm-1-64v64h2v-64h-2Zm1 63h-64v2h64v-2Z" mask="url(#eZ)"/><mask id="fa" fill="#fff"><path d="M1536 768h64v64h-64v-64Z"/></mask><path fill="#F2F4F7" d="M1536 768h64v64h-64v-64Z"/><path fill="#D0D5DD" d="M1600 832v1h1v-1h-1Zm-1-64v64h2v-64h-2Zm1 63h-64v2h64v-2Z" mask="url(#fa)"/><mask id="fb" fill="#fff"><path d="M1600 768h64v64h-64v-64Z"/></mask><path fill="#D0D5DD" d="M1664 832v1h1v-1h-1Zm-1-64v64h2v-64h-2Zm1 63h-64v2h64v-2Z" mask="url(#fb)"/><mask id="fc" fill="#fff"><path d="M1664 768h64v64h-64v-64Z"/></mask><path fill="#D0D5DD" d="M1728 832v1h1v-1h-1Zm-1-64v64h2v-64h-2Zm1 63h-64v2h64v-2Z" mask="url(#fc)"/><mask id="fd" fill="#fff"><path d="M192 832h64v64h-64v-64Z"/></mask><path fill="#D0D5DD" d="M256 896v1h1v-1h-1Zm-1-64v64h2v-64h-2Zm1 63h-64v2h64v-2Z" mask="url(#fd)"/><mask id="fe" fill="#fff"><path d="M256 832h64v64h-64v-64Z"/></mask><path fill="#D0D5DD" d="M320 896v1h1v-1h-1Zm-1-64v64h2v-64h-2Zm1 63h-64v2h64v-2Z" mask="url(#fe)"/><mask id="ff" fill="#fff"><path d="M320 832h64v64h-64v-64Z"/></mask><path fill="#D0D5DD" d="M384 896v1h1v-1h-1Zm-1-64v64h2v-64h-2Zm1 63h-64v2h64v-2Z" mask="url(#ff)"/><mask id="fg" fill="#fff"><path d="M384 832h64v64h-64v-64Z"/></mask><path fill="#D0D5DD" d="M448 896v1h1v-1h-1Zm-1-64v64h2v-64h-2Zm1 63h-64v2h64v-2Z" mask="url(#fg)"/><mask id="fh" fill="#fff"><path d="M448 832h64v64h-64v-64Z"/></mask><path fill="#D0D5DD" d="M512 896v1h1v-1h-1Zm-1-64v64h2v-64h-2Zm1 63h-64v2h64v-2Z" mask="url(#fh)"/><mask id="fi" fill="#fff"><path d="M512 832h64v64h-64v-64Z"/></mask><path fill="#D0D5DD" d="M576 896v1h1v-1h-1Zm-1-64v64h2v-64h-2Zm1 63h-64v2h64v-2Z" mask="url(#fi)"/><mask id="fj" fill="#fff"><path d="M576 832h64v64h-64v-64Z"/></mask><path fill="#F2F4F7" d="M576 832h64v64h-64v-64Z"/><path fill="#D0D5DD" d="M640 896v1h1v-1h-1Zm-1-64v64h2v-64h-2Zm1 63h-64v2h64v-2Z" mask="url(#fj)"/><mask id="fk" fill="#fff"><path d="M640 832h64v64h-64v-64Z"/></mask><path fill="#D0D5DD" d="M704 896v1h1v-1h-1Zm-1-64v64h2v-64h-2Zm1 63h-64v2h64v-2Z" mask="url(#fk)"/><mask id="fl" fill="#fff"><path d="M704 832h64v64h-64v-64Z"/></mask><path fill="#D0D5DD" d="M768 896v1h1v-1h-1Zm-1-64v64h2v-64h-2Zm1 63h-64v2h64v-2Z" mask="url(#fl)"/><mask id="fm" fill="#fff"><path d="M768 832h64v64h-64v-64Z"/></mask><path fill="#D0D5DD" d="M832 896v1h1v-1h-1Zm-1-64v64h2v-64h-2Zm1 63h-64v2h64v-2Z" mask="url(#fm)"/><mask id="fn" fill="#fff"><path d="M832 832h64v64h-64v-64Z"/></mask><path fill="#D0D5DD" d="M896 896v1h1v-1h-1Zm-1-64v64h2v-64h-2Zm1 63h-64v2h64v-2Z" mask="url(#fn)"/><mask id="fo" fill="#fff"><path d="M896 832h64v64h-64v-64Z"/></mask><path fill="#D0D5DD" d="M960 896v1h1v-1h-1Zm-1-64v64h2v-64h-2Zm1 63h-64v2h64v-2Z" mask="url(#fo)"/><mask id="fp" fill="#fff"><path d="M960 832h64v64h-64v-64Z"/></mask><path fill="#D0D5DD" d="M1024 896v1h1v-1h-1Zm-1-64v64h2v-64h-2Zm1 63h-64v2h64v-2Z" mask="url(#fp)"/><mask id="fq" fill="#fff"><path d="M1024 832h64v64h-64v-64Z"/></mask><path fill="#D0D5DD" d="M1088 896v1h1v-1h-1Zm-1-64v64h2v-64h-2Zm1 63h-64v2h64v-2Z" mask="url(#fq)"/><mask id="fr" fill="#fff"><path d="M1088 832h64v64h-64v-64Z"/></mask><path fill="#D0D5DD" d="M1152 896v1h1v-1h-1Zm-1-64v64h2v-64h-2Zm1 63h-64v2h64v-2Z" mask="url(#fr)"/><mask id="fs" fill="#fff"><path d="M1152 832h64v64h-64v-64Z"/></mask><path fill="#F2F4F7" d="M1152 832h64v64h-64v-64Z"/><path fill="#D0D5DD" d="M1216 896v1h1v-1h-1Zm-1-64v64h2v-64h-2Zm1 63h-64v2h64v-2Z" mask="url(#fs)"/><mask id="ft" fill="#fff"><path d="M1216 832h64v64h-64v-64Z"/></mask><path fill="#D0D5DD" d="M1280 896v1h1v-1h-1Zm-1-64v64h2v-64h-2Zm1 63h-64v2h64v-2Z" mask="url(#ft)"/><mask id="fu" fill="#fff"><path d="M1280 832h64v64h-64v-64Z"/></mask><path fill="#D0D5DD" d="M1344 896v1h1v-1h-1Zm-1-64v64h2v-64h-2Zm1 63h-64v2h64v-2Z" mask="url(#fu)"/><mask id="fv" fill="#fff"><path d="M1344 832h64v64h-64v-64Z"/></mask><path fill="#D0D5DD" d="M1408 896v1h1v-1h-1Zm-1-64v64h2v-64h-2Zm1 63h-64v2h64v-2Z" mask="url(#fv)"/><mask id="fw" fill="#fff"><path d="M1408 832h64v64h-64v-64Z"/></mask><path fill="#D0D5DD" d="M1472 896v1h1v-1h-1Zm-1-64v64h2v-64h-2Zm1 63h-64v2h64v-2Z" mask="url(#fw)"/><mask id="fx" fill="#fff"><path d="M1472 832h64v64h-64v-64Z"/></mask><path fill="#D0D5DD" d="M1536 896v1h1v-1h-1Zm-1-64v64h2v-64h-2Zm1 63h-64v2h64v-2Z" mask="url(#fx)"/><mask id="fy" fill="#fff"><path d="M1536 832h64v64h-64v-64Z"/></mask><path fill="#D0D5DD" d="M1600 896v1h1v-1h-1Zm-1-64v64h2v-64h-2Zm1 63h-64v2h64v-2Z" mask="url(#fy)"/><mask id="fz" fill="#fff"><path d="M1600 832h64v64h-64v-64Z"/></mask><path fill="#D0D5DD" d="M1664 896v1h1v-1h-1Zm-1-64v64h2v-64h-2Zm1 63h-64v2h64v-2Z" mask="url(#fz)"/><mask id="fA" fill="#fff"><path d="M1664 832h64v64h-64v-64Z"/></mask><path fill="#F2F4F7" d="M1664 832h64v64h-64v-64Z"/><path fill="#D0D5DD" d="M1728 896v1h1v-1h-1Zm-1-64v64h2v-64h-2Zm1 63h-64v2h64v-2Z" mask="url(#fA)"/><mask id="fB" fill="#fff"><path d="M192 896h64v64h-64v-64Z"/></mask><path fill="#D0D5DD" d="M256 960v1h1v-1h-1Zm-1-64v64h2v-64h-2Zm1 63h-64v2h64v-2Z" mask="url(#fB)"/><mask id="fC" fill="#fff"><path d="M256 896h64v64h-64v-64Z"/></mask><path fill="#D0D5DD" d="M320 960v1h1v-1h-1Zm-1-64v64h2v-64h-2Zm1 63h-64v2h64v-2Z" mask="url(#fC)"/><mask id="fD" fill="#fff"><path d="M320 896h64v64h-64v-64Z"/></mask><path fill="#D0D5DD" d="M384 960v1h1v-1h-1Zm-1-64v64h2v-64h-2Zm1 63h-64v2h64v-2Z" mask="url(#fD)"/><mask id="fE" fill="#fff"><path d="M384 896h64v64h-64v-64Z"/></mask><path fill="#F2F4F7" d="M384 896h64v64h-64v-64Z"/><path fill="#D0D5DD" d="M448 960v1h1v-1h-1Zm-1-64v64h2v-64h-2Zm1 63h-64v2h64v-2Z" mask="url(#fE)"/><mask id="fF" fill="#fff"><path d="M448 896h64v64h-64v-64Z"/></mask><path fill="#D0D5DD" d="M512 960v1h1v-1h-1Zm-1-64v64h2v-64h-2Zm1 63h-64v2h64v-2Z" mask="url(#fF)"/><mask id="fG" fill="#fff"><path d="M512 896h64v64h-64v-64Z"/></mask><path fill="#D0D5DD" d="M576 960v1h1v-1h-1Zm-1-64v64h2v-64h-2Zm1 63h-64v2h64v-2Z" mask="url(#fG)"/><mask id="fH" fill="#fff"><path d="M576 896h64v64h-64v-64Z"/></mask><path fill="#D0D5DD" d="M640 960v1h1v-1h-1Zm-1-64v64h2v-64h-2Zm1 63h-64v2h64v-2Z" mask="url(#fH)"/><mask id="fI" fill="#fff"><path d="M640 896h64v64h-64v-64Z"/></mask><path fill="#D0D5DD" d="M704 960v1h1v-1h-1Zm-1-64v64h2v-64h-2Zm1 63h-64v2h64v-2Z" mask="url(#fI)"/><mask id="fJ" fill="#fff"><path d="M704 896h64v64h-64v-64Z"/></mask><path fill="#D0D5DD" d="M768 960v1h1v-1h-1Zm-1-64v64h2v-64h-2Zm1 63h-64v2h64v-2Z" mask="url(#fJ)"/><mask id="fK" fill="#fff"><path d="M768 896h64v64h-64v-64Z"/></mask><path fill="#D0D5DD" d="M832 960v1h1v-1h-1Zm-1-64v64h2v-64h-2Zm1 63h-64v2h64v-2Z" mask="url(#fK)"/><mask id="fL" fill="#fff"><path d="M832 896h64v64h-64v-64Z"/></mask><path fill="#D0D5DD" d="M896 960v1h1v-1h-1Zm-1-64v64h2v-64h-2Zm1 63h-64v2h64v-2Z" mask="url(#fL)"/><mask id="fM" fill="#fff"><path d="M896 896h64v64h-64v-64Z"/></mask><path fill="#D0D5DD" d="M960 960v1h1v-1h-1Zm-1-64v64h2v-64h-2Zm1 63h-64v2h64v-2Z" mask="url(#fM)"/><mask id="fN" fill="#fff"><path d="M960 896h64v64h-64v-64Z"/></mask><path fill="#F2F4F7" d="M960 896h64v64h-64v-64Z"/><path fill="#D0D5DD" d="M1024 960v1h1v-1h-1Zm-1-64v64h2v-64h-2Zm1 63h-64v2h64v-2Z" mask="url(#fN)"/><mask id="fO" fill="#fff"><path d="M1024 896h64v64h-64v-64Z"/></mask><path fill="#D0D5DD" d="M1088 960v1h1v-1h-1Zm-1-64v64h2v-64h-2Zm1 63h-64v2h64v-2Z" mask="url(#fO)"/><mask id="fP" fill="#fff"><path d="M1088 896h64v64h-64v-64Z"/></mask><path fill="#D0D5DD" d="M1152 960v1h1v-1h-1Zm-1-64v64h2v-64h-2Zm1 63h-64v2h64v-2Z" mask="url(#fP)"/><mask id="fQ" fill="#fff"><path d="M1152 896h64v64h-64v-64Z"/></mask><path fill="#D0D5DD" d="M1216 960v1h1v-1h-1Zm-1-64v64h2v-64h-2Zm1 63h-64v2h64v-2Z" mask="url(#fQ)"/><mask id="fR" fill="#fff"><path d="M1216 896h64v64h-64v-64Z"/></mask><path fill="#D0D5DD" d="M1280 960v1h1v-1h-1Zm-1-64v64h2v-64h-2Zm1 63h-64v2h64v-2Z" mask="url(#fR)"/><mask id="fS" fill="#fff"><path d="M1280 896h64v64h-64v-64Z"/></mask><path fill="#D0D5DD" d="M1344 960v1h1v-1h-1Zm-1-64v64h2v-64h-2Zm1 63h-64v2h64v-2Z" mask="url(#fS)"/><mask id="fT" fill="#fff"><path d="M1344 896h64v64h-64v-64Z"/></mask><path fill="#D0D5DD" d="M1408 960v1h1v-1h-1Zm-1-64v64h2v-64h-2Zm1 63h-64v2h64v-2Z" mask="url(#fT)"/><mask id="fU" fill="#fff"><path d="M1408 896h64v64h-64v-64Z"/></mask><path fill="#F2F4F7" d="M1408 896h64v64h-64v-64Z"/><path fill="#D0D5DD" d="M1472 960v1h1v-1h-1Zm-1-64v64h2v-64h-2Zm1 63h-64v2h64v-2Z" mask="url(#fU)"/><mask id="fV" fill="#fff"><path d="M1472 896h64v64h-64v-64Z"/></mask><path fill="#D0D5DD" d="M1536 960v1h1v-1h-1Zm-1-64v64h2v-64h-2Zm1 63h-64v2h64v-2Z" mask="url(#fV)"/><mask id="fW" fill="#fff"><path d="M1536 896h64v64h-64v-64Z"/></mask><path fill="#D0D5DD" d="M1600 960v1h1v-1h-1Zm-1-64v64h2v-64h-2Zm1 63h-64v2h64v-2Z" mask="url(#fW)"/><mask id="fX" fill="#fff"><path d="M1600 896h64v64h-64v-64Z"/></mask><path fill="#D0D5DD" d="M1664 960v1h1v-1h-1Zm-1-64v64h2v-64h-2Zm1 63h-64v2h64v-2Z" mask="url(#fX)"/><mask id="fY" fill="#fff"><path d="M1664 896h64v64h-64v-64Z"/></mask><path fill="#D0D5DD" d="M1728 960v1h1v-1h-1Zm-1-64v64h2v-64h-2Zm1 63h-64v2h64v-2Z" mask="url(#fY)"/><mask id="fZ" fill="#fff"><path d="M192 960h64v64h-64v-64Z"/></mask><path fill="#D0D5DD" d="M256 1024v1h1v-1h-1Zm-1-64v64h2v-64h-2Zm1 63h-64v2h64v-2Z" mask="url(#fZ)"/><mask id="ga" fill="#fff"><path d="M256 960h64v64h-64v-64Z"/></mask><path fill="#F2F4F7" d="M256 960h64v64h-64v-64Z"/><path fill="#D0D5DD" d="M320 1024v1h1v-1h-1Zm-1-64v64h2v-64h-2Zm1 63h-64v2h64v-2Z" mask="url(#ga)"/><mask id="gb" fill="#fff"><path d="M320 960h64v64h-64v-64Z"/></mask><path fill="#D0D5DD" d="M384 1024v1h1v-1h-1Zm-1-64v64h2v-64h-2Zm1 63h-64v2h64v-2Z" mask="url(#gb)"/><mask id="gc" fill="#fff"><path d="M384 960h64v64h-64v-64Z"/></mask><path fill="#D0D5DD" d="M448 1024v1h1v-1h-1Zm-1-64v64h2v-64h-2Zm1 63h-64v2h64v-2Z" mask="url(#gc)"/><mask id="gd" fill="#fff"><path d="M448 960h64v64h-64v-64Z"/></mask><path fill="#D0D5DD" d="M512 1024v1h1v-1h-1Zm-1-64v64h2v-64h-2Zm1 63h-64v2h64v-2Z" mask="url(#gd)"/><mask id="ge" fill="#fff"><path d="M512 960h64v64h-64v-64Z"/></mask><path fill="#D0D5DD" d="M576 1024v1h1v-1h-1Zm-1-64v64h2v-64h-2Zm1 63h-64v2h64v-2Z" mask="url(#ge)"/><mask id="gf" fill="#fff"><path d="M576 960h64v64h-64v-64Z"/></mask><path fill="#D0D5DD" d="M640 1024v1h1v-1h-1Zm-1-64v64h2v-64h-2Zm1 63h-64v2h64v-2Z" mask="url(#gf)"/><mask id="gg" fill="#fff"><path d="M640 960h64v64h-64v-64Z"/></mask><path fill="#D0D5DD" d="M704 1024v1h1v-1h-1Zm-1-64v64h2v-64h-2Zm1 63h-64v2h64v-2Z" mask="url(#gg)"/><mask id="gh" fill="#fff"><path d="M704 960h64v64h-64v-64Z"/></mask><path fill="#F2F4F7" d="M704 960h64v64h-64v-64Z"/><path fill="#D0D5DD" d="M768 1024v1h1v-1h-1Zm-1-64v64h2v-64h-2Zm1 63h-64v2h64v-2Z" mask="url(#gh)"/><mask id="gi" fill="#fff"><path d="M768 960h64v64h-64v-64Z"/></mask><path fill="#D0D5DD" d="M832 1024v1h1v-1h-1Zm-1-64v64h2v-64h-2Zm1 63h-64v2h64v-2Z" mask="url(#gi)"/><mask id="gj" fill="#fff"><path d="M832 960h64v64h-64v-64Z"/></mask><path fill="#D0D5DD" d="M896 1024v1h1v-1h-1Zm-1-64v64h2v-64h-2Zm1 63h-64v2h64v-2Z" mask="url(#gj)"/><mask id="gk" fill="#fff"><path d="M896 960h64v64h-64v-64Z"/></mask><path fill="#D0D5DD" d="M960 1024v1h1v-1h-1Zm-1-64v64h2v-64h-2Zm1 63h-64v2h64v-2Z" mask="url(#gk)"/><mask id="gl" fill="#fff"><path d="M960 960h64v64h-64v-64Z"/></mask><path fill="#D0D5DD" d="M1024 1024v1h1v-1h-1Zm-1-64v64h2v-64h-2Zm1 63h-64v2h64v-2Z" mask="url(#gl)"/><mask id="gm" fill="#fff"><path d="M1024 960h64v64h-64v-64Z"/></mask><path fill="#D0D5DD" d="M1088 1024v1h1v-1h-1Zm-1-64v64h2v-64h-2Zm1 63h-64v2h64v-2Z" mask="url(#gm)"/><mask id="gn" fill="#fff"><path d="M1088 960h64v64h-64v-64Z"/></mask><path fill="#D0D5DD" d="M1152 1024v1h1v-1h-1Zm-1-64v64h2v-64h-2Zm1 63h-64v2h64v-2Z" mask="url(#gn)"/><mask id="go" fill="#fff"><path d="M1152 960h64v64h-64v-64Z"/></mask><path fill="#D0D5DD" d="M1216 1024v1h1v-1h-1Zm-1-64v64h2v-64h-2Zm1 63h-64v2h64v-2Z" mask="url(#go)"/><mask id="gp" fill="#fff"><path d="M1216 960h64v64h-64v-64Z"/></mask><path fill="#F2F4F7" d="M1216 960h64v64h-64v-64Z"/><path fill="#D0D5DD" d="M1280 1024v1h1v-1h-1Zm-1-64v64h2v-64h-2Zm1 63h-64v2h64v-2Z" mask="url(#gp)"/><mask id="gq" fill="#fff"><path d="M1280 960h64v64h-64v-64Z"/></mask><path fill="#D0D5DD" d="M1344 1024v1h1v-1h-1Zm-1-64v64h2v-64h-2Zm1 63h-64v2h64v-2Z" mask="url(#gq)"/><mask id="gr" fill="#fff"><path d="M1344 960h64v64h-64v-64Z"/></mask><path fill="#D0D5DD" d="M1408 1024v1h1v-1h-1Zm-1-64v64h2v-64h-2Zm1 63h-64v2h64v-2Z" mask="url(#gr)"/><mask id="gs" fill="#fff"><path d="M1408 960h64v64h-64v-64Z"/></mask><path fill="#D0D5DD" d="M1472 1024v1h1v-1h-1Zm-1-64v64h2v-64h-2Zm1 63h-64v2h64v-2Z" mask="url(#gs)"/><mask id="gt" fill="#fff"><path d="M1472 960h64v64h-64v-64Z"/></mask><path fill="#D0D5DD" d="M1536 1024v1h1v-1h-1Zm-1-64v64h2v-64h-2Zm1 63h-64v2h64v-2Z" mask="url(#gt)"/><mask id="gu" fill="#fff"><path d="M1536 960h64v64h-64v-64Z"/></mask><path fill="#D0D5DD" d="M1600 1024v1h1v-1h-1Zm-1-64v64h2v-64h-2Zm1 63h-64v2h64v-2Z" mask="url(#gu)"/><mask id="gv" fill="#fff"><path d="M1600 960h64v64h-64v-64Z"/></mask><path fill="#D0D5DD" d="M1664 1024v1h1v-1h-1Zm-1-64v64h2v-64h-2Zm1 63h-64v2h64v-2Z" mask="url(#gv)"/><mask id="gw" fill="#fff"><path d="M1664 960h64v64h-64v-64Z"/></mask><path fill="#D0D5DD" d="M1728 1024v1h1v-1h-1Zm-1-64v64h2v-64h-2Zm1 63h-64v2h64v-2Z" mask="url(#gw)"/><mask id="gx" fill="#fff"><path d="M192 1024h64v64h-64v-64Z"/></mask><path fill="#D0D5DD" d="M256 1088v1h1v-1h-1Zm-1-64v64h2v-64h-2Zm1 63h-64v2h64v-2Z" mask="url(#gx)"/><mask id="gy" fill="#fff"><path d="M256 1024h64v64h-64v-64Z"/></mask><path fill="#D0D5DD" d="M320 1088v1h1v-1h-1Zm-1-64v64h2v-64h-2Zm1 63h-64v2h64v-2Z" mask="url(#gy)"/><mask id="gz" fill="#fff"><path d="M320 1024h64v64h-64v-64Z"/></mask><path fill="#D0D5DD" d="M384 1088v1h1v-1h-1Zm-1-64v64h2v-64h-2Zm1 63h-64v2h64v-2Z" mask="url(#gz)"/><mask id="gA" fill="#fff"><path d="M384 1024h64v64h-64v-64Z"/></mask><path fill="#D0D5DD" d="M448 1088v1h1v-1h-1Zm-1-64v64h2v-64h-2Zm1 63h-64v2h64v-2Z" mask="url(#gA)"/><mask id="gB" fill="#fff"><path d="M448 1024h64v64h-64v-64Z"/></mask><path fill="#F2F4F7" d="M448 1024h64v64h-64v-64Z"/><path fill="#D0D5DD" d="M512 1088v1h1v-1h-1Zm-1-64v64h2v-64h-2Zm1 63h-64v2h64v-2Z" mask="url(#gB)"/><mask id="gC" fill="#fff"><path d="M512 1024h64v64h-64v-64Z"/></mask><path fill="#D0D5DD" d="M576 1088v1h1v-1h-1Zm-1-64v64h2v-64h-2Zm1 63h-64v2h64v-2Z" mask="url(#gC)"/><mask id="gD" fill="#fff"><path d="M576 1024h64v64h-64v-64Z"/></mask><path fill="#D0D5DD" d="M640 1088v1h1v-1h-1Zm-1-64v64h2v-64h-2Zm1 63h-64v2h64v-2Z" mask="url(#gD)"/><mask id="gE" fill="#fff"><path d="M640 1024h64v64h-64v-64Z"/></mask><path fill="#D0D5DD" d="M704 1088v1h1v-1h-1Zm-1-64v64h2v-64h-2Zm1 63h-64v2h64v-2Z" mask="url(#gE)"/><mask id="gF" fill="#fff"><path d="M704 1024h64v64h-64v-64Z"/></mask><path fill="#D0D5DD" d="M768 1088v1h1v-1h-1Zm-1-64v64h2v-64h-2Zm1 63h-64v2h64v-2Z" mask="url(#gF)"/><mask id="gG" fill="#fff"><path d="M768 1024h64v64h-64v-64Z"/></mask><path fill="#D0D5DD" d="M832 1088v1h1v-1h-1Zm-1-64v64h2v-64h-2Zm1 63h-64v2h64v-2Z" mask="url(#gG)"/><mask id="gH" fill="#fff"><path d="M832 1024h64v64h-64v-64Z"/></mask><path fill="#D0D5DD" d="M896 1088v1h1v-1h-1Zm-1-64v64h2v-64h-2Zm1 63h-64v2h64v-2Z" mask="url(#gH)"/><mask id="gI" fill="#fff"><path d="M896 1024h64v64h-64v-64Z"/></mask><path fill="#D0D5DD" d="M960 1088v1h1v-1h-1Zm-1-64v64h2v-64h-2Zm1 63h-64v2h64v-2Z" mask="url(#gI)"/><mask id="gJ" fill="#fff"><path d="M960 1024h64v64h-64v-64Z"/></mask><path fill="#D0D5DD" d="M1024 1088v1h1v-1h-1Zm-1-64v64h2v-64h-2Zm1 63h-64v2h64v-2Z" mask="url(#gJ)"/><mask id="gK" fill="#fff"><path d="M1024 1024h64v64h-64v-64Z"/></mask><path fill="#D0D5DD" d="M1088 1088v1h1v-1h-1Zm-1-64v64h2v-64h-2Zm1 63h-64v2h64v-2Z" mask="url(#gK)"/><mask id="gL" fill="#fff"><path d="M1088 1024h64v64h-64v-64Z"/></mask><path fill="#D0D5DD" d="M1152 1088v1h1v-1h-1Zm-1-64v64h2v-64h-2Zm1 63h-64v2h64v-2Z" mask="url(#gL)"/><mask id="gM" fill="#fff"><path d="M1152 1024h64v64h-64v-64Z"/></mask><path fill="#D0D5DD" d="M1216 1088v1h1v-1h-1Zm-1-64v64h2v-64h-2Zm1 63h-64v2h64v-2Z" mask="url(#gM)"/><mask id="gN" fill="#fff"><path d="M1216 1024h64v64h-64v-64Z"/></mask><path fill="#D0D5DD" d="M1280 1088v1h1v-1h-1Zm-1-64v64h2v-64h-2Zm1 63h-64v2h64v-2Z" mask="url(#gN)"/><mask id="gO" fill="#fff"><path d="M1280 1024h64v64h-64v-64Z"/></mask><path fill="#D0D5DD" d="M1344 1088v1h1v-1h-1Zm-1-64v64h2v-64h-2Zm1 63h-64v2h64v-2Z" mask="url(#gO)"/><mask id="gP" fill="#fff"><path d="M1344 1024h64v64h-64v-64Z"/></mask><path fill="#D0D5DD" d="M1408 1088v1h1v-1h-1Zm-1-64v64h2v-64h-2Zm1 63h-64v2h64v-2Z" mask="url(#gP)"/><mask id="gQ" fill="#fff"><path d="M1408 1024h64v64h-64v-64Z"/></mask><path fill="#F2F4F7" d="M1408 1024h64v64h-64v-64Z"/><path fill="#D0D5DD" d="M1472 1088v1h1v-1h-1Zm-1-64v64h2v-64h-2Zm1 63h-64v2h64v-2Z" mask="url(#gQ)"/><mask id="gR" fill="#fff"><path d="M1472 1024h64v64h-64v-64Z"/></mask><path fill="#D0D5DD" d="M1536 1088v1h1v-1h-1Zm-1-64v64h2v-64h-2Zm1 63h-64v2h64v-2Z" mask="url(#gR)"/><mask id="gS" fill="#fff"><path d="M1536 1024h64v64h-64v-64Z"/></mask><path fill="#D0D5DD" d="M1600 1088v1h1v-1h-1Zm-1-64v64h2v-64h-2Zm1 63h-64v2h64v-2Z" mask="url(#gS)"/><mask id="gT" fill="#fff"><path d="M1600 1024h64v64h-64v-64Z"/></mask><path fill="#D0D5DD" d="M1664 1088v1h1v-1h-1Zm-1-64v64h2v-64h-2Zm1 63h-64v2h64v-2Z" mask="url(#gT)"/><mask id="gU" fill="#fff"><path d="M1664 1024h64v64h-64v-64Z"/></mask><path fill="#D0D5DD" d="M1728 1088v1h1v-1h-1Zm-1-64v64h2v-64h-2Zm1 63h-64v2h64v-2Z" mask="url(#gU)"/><mask id="gV" fill="#fff"><path d="M192 1088h64v64h-64v-64Z"/></mask><path fill="#D0D5DD" d="M256 1152v1h1v-1h-1Zm-1-64v64h2v-64h-2Zm1 63h-64v2h64v-2Z" mask="url(#gV)"/><mask id="gW" fill="#fff"><path d="M256 1088h64v64h-64v-64Z"/></mask><path fill="#D0D5DD" d="M320 1152v1h1v-1h-1Zm-1-64v64h2v-64h-2Zm1 63h-64v2h64v-2Z" mask="url(#gW)"/><mask id="gX" fill="#fff"><path d="M320 1088h64v64h-64v-64Z"/></mask><path fill="#D0D5DD" d="M384 1152v1h1v-1h-1Zm-1-64v64h2v-64h-2Zm1 63h-64v2h64v-2Z" mask="url(#gX)"/><mask id="gY" fill="#fff"><path d="M384 1088h64v64h-64v-64Z"/></mask><path fill="#D0D5DD" d="M448 1152v1h1v-1h-1Zm-1-64v64h2v-64h-2Zm1 63h-64v2h64v-2Z" mask="url(#gY)"/><mask id="gZ" fill="#fff"><path d="M448 1088h64v64h-64v-64Z"/></mask><path fill="#D0D5DD" d="M512 1152v1h1v-1h-1Zm-1-64v64h2v-64h-2Zm1 63h-64v2h64v-2Z" mask="url(#gZ)"/><mask id="ha" fill="#fff"><path d="M512 1088h64v64h-64v-64Z"/></mask><path fill="#D0D5DD" d="M576 1152v1h1v-1h-1Zm-1-64v64h2v-64h-2Zm1 63h-64v2h64v-2Z" mask="url(#ha)"/><mask id="hb" fill="#fff"><path d="M576 1088h64v64h-64v-64Z"/></mask><path fill="#D0D5DD" d="M640 1152v1h1v-1h-1Zm-1-64v64h2v-64h-2Zm1 63h-64v2h64v-2Z" mask="url(#hb)"/><mask id="hc" fill="#fff"><path d="M640 1088h64v64h-64v-64Z"/></mask><path fill="#D0D5DD" d="M704 1152v1h1v-1h-1Zm-1-64v64h2v-64h-2Zm1 63h-64v2h64v-2Z" mask="url(#hc)"/><mask id="hd" fill="#fff"><path d="M704 1088h64v64h-64v-64Z"/></mask><path fill="#D0D5DD" d="M768 1152v1h1v-1h-1Zm-1-64v64h2v-64h-2Zm1 63h-64v2h64v-2Z" mask="url(#hd)"/><mask id="he" fill="#fff"><path d="M768 1088h64v64h-64v-64Z"/></mask><path fill="#F2F4F7" d="M768 1088h64v64h-64v-64Z"/><path fill="#D0D5DD" d="M832 1152v1h1v-1h-1Zm-1-64v64h2v-64h-2Zm1 63h-64v2h64v-2Z" mask="url(#he)"/><mask id="hf" fill="#fff"><path d="M832 1088h64v64h-64v-64Z"/></mask><path fill="#D0D5DD" d="M896 1152v1h1v-1h-1Zm-1-64v64h2v-64h-2Zm1 63h-64v2h64v-2Z" mask="url(#hf)"/><mask id="hg" fill="#fff"><path d="M896 1088h64v64h-64v-64Z"/></mask><path fill="#D0D5DD" d="M960 1152v1h1v-1h-1Zm-1-64v64h2v-64h-2Zm1 63h-64v2h64v-2Z" mask="url(#hg)"/><mask id="hh" fill="#fff"><path d="M960 1088h64v64h-64v-64Z"/></mask><path fill="#D0D5DD" d="M1024 1152v1h1v-1h-1Zm-1-64v64h2v-64h-2Zm1 63h-64v2h64v-2Z" mask="url(#hh)"/><mask id="hi" fill="#fff"><path d="M1024 1088h64v64h-64v-64Z"/></mask><path fill="#F2F4F7" d="M1024 1088h64v64h-64v-64Z"/><path fill="#D0D5DD" d="M1088 1152v1h1v-1h-1Zm-1-64v64h2v-64h-2Zm1 63h-64v2h64v-2Z" mask="url(#hi)"/><mask id="hj" fill="#fff"><path d="M1088 1088h64v64h-64v-64Z"/></mask><path fill="#D0D5DD" d="M1152 1152v1h1v-1h-1Zm-1-64v64h2v-64h-2Zm1 63h-64v2h64v-2Z" mask="url(#hj)"/><mask id="hk" fill="#fff"><path d="M1152 1088h64v64h-64v-64Z"/></mask><path fill="#D0D5DD" d="M1216 1152v1h1v-1h-1Zm-1-64v64h2v-64h-2Zm1 63h-64v2h64v-2Z" mask="url(#hk)"/><mask id="hl" fill="#fff"><path d="M1216 1088h64v64h-64v-64Z"/></mask><path fill="#D0D5DD" d="M1280 1152v1h1v-1h-1Zm-1-64v64h2v-64h-2Zm1 63h-64v2h64v-2Z" mask="url(#hl)"/><mask id="hm" fill="#fff"><path d="M1280 1088h64v64h-64v-64Z"/></mask><path fill="#D0D5DD" d="M1344 1152v1h1v-1h-1Zm-1-64v64h2v-64h-2Zm1 63h-64v2h64v-2Z" mask="url(#hm)"/><mask id="hn" fill="#fff"><path d="M1344 1088h64v64h-64v-64Z"/></mask><path fill="#D0D5DD" d="M1408 1152v1h1v-1h-1Zm-1-64v64h2v-64h-2Zm1 63h-64v2h64v-2Z" mask="url(#hn)"/><mask id="ho" fill="#fff"><path d="M1408 1088h64v64h-64v-64Z"/></mask><path fill="#D0D5DD" d="M1472 1152v1h1v-1h-1Zm-1-64v64h2v-64h-2Zm1 63h-64v2h64v-2Z" mask="url(#ho)"/><mask id="hp" fill="#fff"><path d="M1472 1088h64v64h-64v-64Z"/></mask><path fill="#D0D5DD" d="M1536 1152v1h1v-1h-1Zm-1-64v64h2v-64h-2Zm1 63h-64v2h64v-2Z" mask="url(#hp)"/><mask id="hq" fill="#fff"><path d="M1536 1088h64v64h-64v-64Z"/></mask><path fill="#D0D5DD" d="M1600 1152v1h1v-1h-1Zm-1-64v64h2v-64h-2Zm1 63h-64v2h64v-2Z" mask="url(#hq)"/><mask id="hr" fill="#fff"><path d="M1600 1088h64v64h-64v-64Z"/></mask><path fill="#D0D5DD" d="M1664 1152v1h1v-1h-1Zm-1-64v64h2v-64h-2Zm1 63h-64v2h64v-2Z" mask="url(#hr)"/><mask id="hs" fill="#fff"><path d="M1664 1088h64v64h-64v-64Z"/></mask><path fill="#F2F4F7" d="M1664 1088h64v64h-64v-64Z"/><path fill="#D0D5DD" d="M1728 1152v1h1v-1h-1Zm-1-64v64h2v-64h-2Zm1 63h-64v2h64v-2Z" mask="url(#hs)"/><mask id="ht" fill="#fff"><path d="M192 1152h64v64h-64v-64Z"/></mask><path fill="#F2F4F7" d="M192 1152h64v64h-64v-64Z"/><path fill="#D0D5DD" d="M256 1216v1h1v-1h-1Zm-1-64v64h2v-64h-2Zm1 63h-64v2h64v-2Z" mask="url(#ht)"/><mask id="hu" fill="#fff"><path d="M256 1152h64v64h-64v-64Z"/></mask><path fill="#D0D5DD" d="M320 1216v1h1v-1h-1Zm-1-64v64h2v-64h-2Zm1 63h-64v2h64v-2Z" mask="url(#hu)"/><mask id="hv" fill="#fff"><path d="M320 1152h64v64h-64v-64Z"/></mask><path fill="#D0D5DD" d="M384 1216v1h1v-1h-1Zm-1-64v64h2v-64h-2Zm1 63h-64v2h64v-2Z" mask="url(#hv)"/><mask id="hw" fill="#fff"><path d="M384 1152h64v64h-64v-64Z"/></mask><path fill="#F2F4F7" d="M384 1152h64v64h-64v-64Z"/><path fill="#D0D5DD" d="M448 1216v1h1v-1h-1Zm-1-64v64h2v-64h-2Zm1 63h-64v2h64v-2Z" mask="url(#hw)"/><mask id="hx" fill="#fff"><path d="M448 1152h64v64h-64v-64Z"/></mask><path fill="#D0D5DD" d="M512 1216v1h1v-1h-1Zm-1-64v64h2v-64h-2Zm1 63h-64v2h64v-2Z" mask="url(#hx)"/><mask id="hy" fill="#fff"><path d="M512 1152h64v64h-64v-64Z"/></mask><path fill="#D0D5DD" d="M576 1216v1h1v-1h-1Zm-1-64v64h2v-64h-2Zm1 63h-64v2h64v-2Z" mask="url(#hy)"/><mask id="hz" fill="#fff"><path d="M576 1152h64v64h-64v-64Z"/></mask><path fill="#D0D5DD" d="M640 1216v1h1v-1h-1Zm-1-64v64h2v-64h-2Zm1 63h-64v2h64v-2Z" mask="url(#hz)"/><mask id="hA" fill="#fff"><path d="M640 1152h64v64h-64v-64Z"/></mask><path fill="#D0D5DD" d="M704 1216v1h1v-1h-1Zm-1-64v64h2v-64h-2Zm1 63h-64v2h64v-2Z" mask="url(#hA)"/><mask id="hB" fill="#fff"><path d="M704 1152h64v64h-64v-64Z"/></mask><path fill="#D0D5DD" d="M768 1216v1h1v-1h-1Zm-1-64v64h2v-64h-2Zm1 63h-64v2h64v-2Z" mask="url(#hB)"/><mask id="hC" fill="#fff"><path d="M768 1152h64v64h-64v-64Z"/></mask><path fill="#D0D5DD" d="M832 1216v1h1v-1h-1Zm-1-64v64h2v-64h-2Zm1 63h-64v2h64v-2Z" mask="url(#hC)"/><mask id="hD" fill="#fff"><path d="M832 1152h64v64h-64v-64Z"/></mask><path fill="#D0D5DD" d="M896 1216v1h1v-1h-1Zm-1-64v64h2v-64h-2Zm1 63h-64v2h64v-2Z" mask="url(#hD)"/><mask id="hE" fill="#fff"><path d="M896 1152h64v64h-64v-64Z"/></mask><path fill="#D0D5DD" d="M960 1216v1h1v-1h-1Zm-1-64v64h2v-64h-2Zm1 63h-64v2h64v-2Z" mask="url(#hE)"/><mask id="hF" fill="#fff"><path d="M960 1152h64v64h-64v-64Z"/></mask><path fill="#D0D5DD" d="M1024 1216v1h1v-1h-1Zm-1-64v64h2v-64h-2Zm1 63h-64v2h64v-2Z" mask="url(#hF)"/><mask id="hG" fill="#fff"><path d="M1024 1152h64v64h-64v-64Z"/></mask><path fill="#D0D5DD" d="M1088 1216v1h1v-1h-1Zm-1-64v64h2v-64h-2Zm1 63h-64v2h64v-2Z" mask="url(#hG)"/><mask id="hH" fill="#fff"><path d="M1088 1152h64v64h-64v-64Z"/></mask><path fill="#D0D5DD" d="M1152 1216v1h1v-1h-1Zm-1-64v64h2v-64h-2Zm1 63h-64v2h64v-2Z" mask="url(#hH)"/><mask id="hI" fill="#fff"><path d="M1152 1152h64v64h-64v-64Z"/></mask><path fill="#D0D5DD" d="M1216 1216v1h1v-1h-1Zm-1-64v64h2v-64h-2Zm1 63h-64v2h64v-2Z" mask="url(#hI)"/><mask id="hJ" fill="#fff"><path d="M1216 1152h64v64h-64v-64Z"/></mask><path fill="#D0D5DD" d="M1280 1216v1h1v-1h-1Zm-1-64v64h2v-64h-2Zm1 63h-64v2h64v-2Z" mask="url(#hJ)"/><mask id="hK" fill="#fff"><path d="M1280 1152h64v64h-64v-64Z"/></mask><path fill="#F2F4F7" d="M1280 1152h64v64h-64v-64Z"/><path fill="#D0D5DD" d="M1344 1216v1h1v-1h-1Zm-1-64v64h2v-64h-2Zm1 63h-64v2h64v-2Z" mask="url(#hK)"/><mask id="hL" fill="#fff"><path d="M1344 1152h64v64h-64v-64Z"/></mask><path fill="#D0D5DD" d="M1408 1216v1h1v-1h-1Zm-1-64v64h2v-64h-2Zm1 63h-64v2h64v-2Z" mask="url(#hL)"/><mask id="hM" fill="#fff"><path d="M1408 1152h64v64h-64v-64Z"/></mask><path fill="#D0D5DD" d="M1472 1216v1h1v-1h-1Zm-1-64v64h2v-64h-2Zm1 63h-64v2h64v-2Z" mask="url(#hM)"/><mask id="hN" fill="#fff"><path d="M1472 1152h64v64h-64v-64Z"/></mask><path fill="#D0D5DD" d="M1536 1216v1h1v-1h-1Zm-1-64v64h2v-64h-2Zm1 63h-64v2h64v-2Z" mask="url(#hN)"/><mask id="hO" fill="#fff"><path d="M1536 1152h64v64h-64v-64Z"/></mask><path fill="#D0D5DD" d="M1600 1216v1h1v-1h-1Zm-1-64v64h2v-64h-2Zm1 63h-64v2h64v-2Z" mask="url(#hO)"/><mask id="hP" fill="#fff"><path d="M1600 1152h64v64h-64v-64Z"/></mask><path fill="#D0D5DD" d="M1664 1216v1h1v-1h-1Zm-1-64v64h2v-64h-2Zm1 63h-64v2h64v-2Z" mask="url(#hP)"/><mask id="hQ" fill="#fff"><path d="M1664 1152h64v64h-64v-64Z"/></mask><path fill="#D0D5DD" d="M1728 1216v1h1v-1h-1Zm-1-64v64h2v-64h-2Zm1 63h-64v2h64v-2Z" mask="url(#hQ)"/><mask id="hR" fill="#fff"><path d="M192 1216h64v64h-64v-64Z"/></mask><path fill="#D0D5DD" d="M256 1280v1h1v-1h-1Zm-1-64v64h2v-64h-2Zm1 63h-64v2h64v-2Z" mask="url(#hR)"/><mask id="hS" fill="#fff"><path d="M256 1216h64v64h-64v-64Z"/></mask><path fill="#D0D5DD" d="M320 1280v1h1v-1h-1Zm-1-64v64h2v-64h-2Zm1 63h-64v2h64v-2Z" mask="url(#hS)"/><mask id="hT" fill="#fff"><path d="M320 1216h64v64h-64v-64Z"/></mask><path fill="#D0D5DD" d="M384 1280v1h1v-1h-1Zm-1-64v64h2v-64h-2Zm1 63h-64v2h64v-2Z" mask="url(#hT)"/><mask id="hU" fill="#fff"><path d="M384 1216h64v64h-64v-64Z"/></mask><path fill="#D0D5DD" d="M448 1280v1h1v-1h-1Zm-1-64v64h2v-64h-2Zm1 63h-64v2h64v-2Z" mask="url(#hU)"/><mask id="hV" fill="#fff"><path d="M448 1216h64v64h-64v-64Z"/></mask><path fill="#D0D5DD" d="M512 1280v1h1v-1h-1Zm-1-64v64h2v-64h-2Zm1 63h-64v2h64v-2Z" mask="url(#hV)"/><mask id="hW" fill="#fff"><path d="M512 1216h64v64h-64v-64Z"/></mask><path fill="#F2F4F7" d="M512 1216h64v64h-64v-64Z"/><path fill="#D0D5DD" d="M576 1280v1h1v-1h-1Zm-1-64v64h2v-64h-2Zm1 63h-64v2h64v-2Z" mask="url(#hW)"/><mask id="hX" fill="#fff"><path d="M576 1216h64v64h-64v-64Z"/></mask><path fill="#D0D5DD" d="M640 1280v1h1v-1h-1Zm-1-64v64h2v-64h-2Zm1 63h-64v2h64v-2Z" mask="url(#hX)"/><mask id="hY" fill="#fff"><path d="M640 1216h64v64h-64v-64Z"/></mask><path fill="#D0D5DD" d="M704 1280v1h1v-1h-1Zm-1-64v64h2v-64h-2Zm1 63h-64v2h64v-2Z" mask="url(#hY)"/><mask id="hZ" fill="#fff"><path d="M704 1216h64v64h-64v-64Z"/></mask><path fill="#D0D5DD" d="M768 1280v1h1v-1h-1Zm-1-64v64h2v-64h-2Zm1 63h-64v2h64v-2Z" mask="url(#hZ)"/><mask id="ia" fill="#fff"><path d="M768 1216h64v64h-64v-64Z"/></mask><path fill="#D0D5DD" d="M832 1280v1h1v-1h-1Zm-1-64v64h2v-64h-2Zm1 63h-64v2h64v-2Z" mask="url(#ia)"/><mask id="ib" fill="#fff"><path d="M832 1216h64v64h-64v-64Z"/></mask><path fill="#F2F4F7" d="M832 1216h64v64h-64v-64Z"/><path fill="#D0D5DD" d="M896 1280v1h1v-1h-1Zm-1-64v64h2v-64h-2Zm1 63h-64v2h64v-2Z" mask="url(#ib)"/><mask id="ic" fill="#fff"><path d="M896 1216h64v64h-64v-64Z"/></mask><path fill="#D0D5DD" d="M960 1280v1h1v-1h-1Zm-1-64v64h2v-64h-2Zm1 63h-64v2h64v-2Z" mask="url(#ic)"/><mask id="id" fill="#fff"><path d="M960 1216h64v64h-64v-64Z"/></mask><path fill="#D0D5DD" d="M1024 1280v1h1v-1h-1Zm-1-64v64h2v-64h-2Zm1 63h-64v2h64v-2Z" mask="url(#id)"/><mask id="ie" fill="#fff"><path d="M1024 1216h64v64h-64v-64Z"/></mask><path fill="#D0D5DD" d="M1088 1280v1h1v-1h-1Zm-1-64v64h2v-64h-2Zm1 63h-64v2h64v-2Z" mask="url(#ie)"/><mask id="if" fill="#fff"><path d="M1088 1216h64v64h-64v-64Z"/></mask><path fill="#D0D5DD" d="M1152 1280v1h1v-1h-1Zm-1-64v64h2v-64h-2Zm1 63h-64v2h64v-2Z" mask="url(#if)"/><mask id="ig" fill="#fff"><path d="M1152 1216h64v64h-64v-64Z"/></mask><path fill="#D0D5DD" d="M1216 1280v1h1v-1h-1Zm-1-64v64h2v-64h-2Zm1 63h-64v2h64v-2Z" mask="url(#ig)"/><mask id="ih" fill="#fff"><path d="M1216 1216h64v64h-64v-64Z"/></mask><path fill="#D0D5DD" d="M1280 1280v1h1v-1h-1Zm-1-64v64h2v-64h-2Zm1 63h-64v2h64v-2Z" mask="url(#ih)"/><mask id="ii" fill="#fff"><path d="M1280 1216h64v64h-64v-64Z"/></mask><path fill="#D0D5DD" d="M1344 1280v1h1v-1h-1Zm-1-64v64h2v-64h-2Zm1 63h-64v2h64v-2Z" mask="url(#ii)"/><mask id="ij" fill="#fff"><path d="M1344 1216h64v64h-64v-64Z"/></mask><path fill="#D0D5DD" d="M1408 1280v1h1v-1h-1Zm-1-64v64h2v-64h-2Zm1 63h-64v2h64v-2Z" mask="url(#ij)"/><mask id="ik" fill="#fff"><path d="M1408 1216h64v64h-64v-64Z"/></mask><path fill="#D0D5DD" d="M1472 1280v1h1v-1h-1Zm-1-64v64h2v-64h-2Zm1 63h-64v2h64v-2Z" mask="url(#ik)"/><mask id="il" fill="#fff"><path d="M1472 1216h64v64h-64v-64Z"/></mask><path fill="#D0D5DD" d="M1536 1280v1h1v-1h-1Zm-1-64v64h2v-64h-2Zm1 63h-64v2h64v-2Z" mask="url(#il)"/><mask id="im" fill="#fff"><path d="M1536 1216h64v64h-64v-64Z"/></mask><path fill="#F2F4F7" d="M1536 1216h64v64h-64v-64Z"/><path fill="#D0D5DD" d="M1600 1280v1h1v-1h-1Zm-1-64v64h2v-64h-2Zm1 63h-64v2h64v-2Z" mask="url(#im)"/><mask id="in" fill="#fff"><path d="M1600 1216h64v64h-64v-64Z"/></mask><path fill="#D0D5DD" d="M1664 1280v1h1v-1h-1Zm-1-64v64h2v-64h-2Zm1 63h-64v2h64v-2Z" mask="url(#in)"/><mask id="io" fill="#fff"><path d="M1664 1216h64v64h-64v-64Z"/></mask><path fill="#D0D5DD" d="M1728 1280v1h1v-1h-1Zm-1-64v64h2v-64h-2Zm1 63h-64v2h64v-2Z" mask="url(#io)"/><mask id="ip" fill="#fff"><path d="M192 1280h64v64h-64v-64Z"/></mask><path fill="#D0D5DD" d="M256 1344v1h1v-1h-1Zm-1-64v64h2v-64h-2Zm1 63h-64v2h64v-2Z" mask="url(#ip)"/><mask id="iq" fill="#fff"><path d="M256 1280h64v64h-64v-64Z"/></mask><path fill="#D0D5DD" d="M320 1344v1h1v-1h-1Zm-1-64v64h2v-64h-2Zm1 63h-64v2h64v-2Z" mask="url(#iq)"/><mask id="ir" fill="#fff"><path d="M320 1280h64v64h-64v-64Z"/></mask><path fill="#D0D5DD" d="M384 1344v1h1v-1h-1Zm-1-64v64h2v-64h-2Zm1 63h-64v2h64v-2Z" mask="url(#ir)"/><mask id="is" fill="#fff"><path d="M384 1280h64v64h-64v-64Z"/></mask><path fill="#D0D5DD" d="M448 1344v1h1v-1h-1Zm-1-64v64h2v-64h-2Zm1 63h-64v2h64v-2Z" mask="url(#is)"/><mask id="it" fill="#fff"><path d="M448 1280h64v64h-64v-64Z"/></mask><path fill="#D0D5DD" d="M512 1344v1h1v-1h-1Zm-1-64v64h2v-64h-2Zm1 63h-64v2h64v-2Z" mask="url(#it)"/><mask id="iu" fill="#fff"><path d="M512 1280h64v64h-64v-64Z"/></mask><path fill="#D0D5DD" d="M576 1344v1h1v-1h-1Zm-1-64v64h2v-64h-2Zm1 63h-64v2h64v-2Z" mask="url(#iu)"/><mask id="iv" fill="#fff"><path d="M576 1280h64v64h-64v-64Z"/></mask><path fill="#D0D5DD" d="M640 1344v1h1v-1h-1Zm-1-64v64h2v-64h-2Zm1 63h-64v2h64v-2Z" mask="url(#iv)"/><mask id="iw" fill="#fff"><path d="M640 1280h64v64h-64v-64Z"/></mask><path fill="#D0D5DD" d="M704 1344v1h1v-1h-1Zm-1-64v64h2v-64h-2Zm1 63h-64v2h64v-2Z" mask="url(#iw)"/><mask id="ix" fill="#fff"><path d="M704 1280h64v64h-64v-64Z"/></mask><path fill="#F2F4F7" d="M704 1280h64v64h-64v-64Z"/><path fill="#D0D5DD" d="M768 1344v1h1v-1h-1Zm-1-64v64h2v-64h-2Zm1 63h-64v2h64v-2Z" mask="url(#ix)"/><mask id="iy" fill="#fff"><path d="M768 1280h64v64h-64v-64Z"/></mask><path fill="#D0D5DD" d="M832 1344v1h1v-1h-1Zm-1-64v64h2v-64h-2Zm1 63h-64v2h64v-2Z" mask="url(#iy)"/><mask id="iz" fill="#fff"><path d="M832 1280h64v64h-64v-64Z"/></mask><path fill="#D0D5DD" d="M896 1344v1h1v-1h-1Zm-1-64v64h2v-64h-2Zm1 63h-64v2h64v-2Z" mask="url(#iz)"/><mask id="iA" fill="#fff"><path d="M896 1280h64v64h-64v-64Z"/></mask><path fill="#D0D5DD" d="M960 1344v1h1v-1h-1Zm-1-64v64h2v-64h-2Zm1 63h-64v2h64v-2Z" mask="url(#iA)"/><mask id="iB" fill="#fff"><path d="M960 1280h64v64h-64v-64Z"/></mask><path fill="#D0D5DD" d="M1024 1344v1h1v-1h-1Zm-1-64v64h2v-64h-2Zm1 63h-64v2h64v-2Z" mask="url(#iB)"/><mask id="iC" fill="#fff"><path d="M1024 1280h64v64h-64v-64Z"/></mask><path fill="#D0D5DD" d="M1088 1344v1h1v-1h-1Zm-1-64v64h2v-64h-2Zm1 63h-64v2h64v-2Z" mask="url(#iC)"/><mask id="iD" fill="#fff"><path d="M1088 1280h64v64h-64v-64Z"/></mask><path fill="#F2F4F7" d="M1088 1280h64v64h-64v-64Z"/><path fill="#D0D5DD" d="M1152 1344v1h1v-1h-1Zm-1-64v64h2v-64h-2Zm1 63h-64v2h64v-2Z" mask="url(#iD)"/><mask id="iE" fill="#fff"><path d="M1152 1280h64v64h-64v-64Z"/></mask><path fill="#D0D5DD" d="M1216 1344v1h1v-1h-1Zm-1-64v64h2v-64h-2Zm1 63h-64v2h64v-2Z" mask="url(#iE)"/><mask id="iF" fill="#fff"><path d="M1216 1280h64v64h-64v-64Z"/></mask><path fill="#D0D5DD" d="M1280 1344v1h1v-1h-1Zm-1-64v64h2v-64h-2Zm1 63h-64v2h64v-2Z" mask="url(#iF)"/><mask id="iG" fill="#fff"><path d="M1280 1280h64v64h-64v-64Z"/></mask><path fill="#F2F4F7" d="M1280 1280h64v64h-64v-64Z"/><path fill="#D0D5DD" d="M1344 1344v1h1v-1h-1Zm-1-64v64h2v-64h-2Zm1 63h-64v2h64v-2Z" mask="url(#iG)"/><mask id="iH" fill="#fff"><path d="M1344 1280h64v64h-64v-64Z"/></mask><path fill="#D0D5DD" d="M1408 1344v1h1v-1h-1Zm-1-64v64h2v-64h-2Zm1 63h-64v2h64v-2Z" mask="url(#iH)"/><mask id="iI" fill="#fff"><path d="M1408 1280h64v64h-64v-64Z"/></mask><path fill="#D0D5DD" d="M1472 1344v1h1v-1h-1Zm-1-64v64h2v-64h-2Zm1 63h-64v2h64v-2Z" mask="url(#iI)"/><mask id="iJ" fill="#fff"><path d="M1472 1280h64v64h-64v-64Z"/></mask><path fill="#D0D5DD" d="M1536 1344v1h1v-1h-1Zm-1-64v64h2v-64h-2Zm1 63h-64v2h64v-2Z" mask="url(#iJ)"/><mask id="iK" fill="#fff"><path d="M1536 1280h64v64h-64v-64Z"/></mask><path fill="#D0D5DD" d="M1600 1344v1h1v-1h-1Zm-1-64v64h2v-64h-2Zm1 63h-64v2h64v-2Z" mask="url(#iK)"/><mask id="iL" fill="#fff"><path d="M1600 1280h64v64h-64v-64Z"/></mask><path fill="#D0D5DD" d="M1664 1344v1h1v-1h-1Zm-1-64v64h2v-64h-2Zm1 63h-64v2h64v-2Z" mask="url(#iL)"/><mask id="iM" fill="#fff"><path d="M1664 1280h64v64h-64v-64Z"/></mask><path fill="#D0D5DD" d="M1728 1344v1h1v-1h-1Zm-1-64v64h2v-64h-2Zm1 63h-64v2h64v-2Z" mask="url(#iM)"/><mask id="iN" fill="#fff"><path d="M192 1344h64v64h-64v-64Z"/></mask><path fill="#D0D5DD" d="M256 1408v1h1v-1h-1Zm-1-64v64h2v-64h-2Zm1 63h-64v2h64v-2Z" mask="url(#iN)"/><mask id="iO" fill="#fff"><path d="M256 1344h64v64h-64v-64Z"/></mask><path fill="#D0D5DD" d="M320 1408v1h1v-1h-1Zm-1-64v64h2v-64h-2Zm1 63h-64v2h64v-2Z" mask="url(#iO)"/><mask id="iP" fill="#fff"><path d="M320 1344h64v64h-64v-64Z"/></mask><path fill="#D0D5DD" d="M384 1408v1h1v-1h-1Zm-1-64v64h2v-64h-2Zm1 63h-64v2h64v-2Z" mask="url(#iP)"/><mask id="iQ" fill="#fff"><path d="M384 1344h64v64h-64v-64Z"/></mask><path fill="#D0D5DD" d="M448 1408v1h1v-1h-1Zm-1-64v64h2v-64h-2Zm1 63h-64v2h64v-2Z" mask="url(#iQ)"/><mask id="iR" fill="#fff"><path d="M448 1344h64v64h-64v-64Z"/></mask><path fill="#F2F4F7" d="M448 1344h64v64h-64v-64Z"/><path fill="#D0D5DD" d="M512 1408v1h1v-1h-1Zm-1-64v64h2v-64h-2Zm1 63h-64v2h64v-2Z" mask="url(#iR)"/><mask id="iS" fill="#fff"><path d="M512 1344h64v64h-64v-64Z"/></mask><path fill="#D0D5DD" d="M576 1408v1h1v-1h-1Zm-1-64v64h2v-64h-2Zm1 63h-64v2h64v-2Z" mask="url(#iS)"/><mask id="iT" fill="#fff"><path d="M576 1344h64v64h-64v-64Z"/></mask><path fill="#D0D5DD" d="M640 1408v1h1v-1h-1Zm-1-64v64h2v-64h-2Zm1 63h-64v2h64v-2Z" mask="url(#iT)"/><mask id="iU" fill="#fff"><path d="M640 1344h64v64h-64v-64Z"/></mask><path fill="#D0D5DD" d="M704 1408v1h1v-1h-1Zm-1-64v64h2v-64h-2Zm1 63h-64v2h64v-2Z" mask="url(#iU)"/><mask id="iV" fill="#fff"><path d="M704 1344h64v64h-64v-64Z"/></mask><path fill="#D0D5DD" d="M768 1408v1h1v-1h-1Zm-1-64v64h2v-64h-2Zm1 63h-64v2h64v-2Z" mask="url(#iV)"/><mask id="iW" fill="#fff"><path d="M768 1344h64v64h-64v-64Z"/></mask><path fill="#D0D5DD" d="M832 1408v1h1v-1h-1Zm-1-64v64h2v-64h-2Zm1 63h-64v2h64v-2Z" mask="url(#iW)"/><mask id="iX" fill="#fff"><path d="M832 1344h64v64h-64v-64Z"/></mask><path fill="#D0D5DD" d="M896 1408v1h1v-1h-1Zm-1-64v64h2v-64h-2Zm1 63h-64v2h64v-2Z" mask="url(#iX)"/><mask id="iY" fill="#fff"><path d="M896 1344h64v64h-64v-64Z"/></mask><path fill="#F2F4F7" d="M896 1344h64v64h-64v-64Z"/><path fill="#D0D5DD" d="M960 1408v1h1v-1h-1Zm-1-64v64h2v-64h-2Zm1 63h-64v2h64v-2Z" mask="url(#iY)"/><mask id="iZ" fill="#fff"><path d="M960 1344h64v64h-64v-64Z"/></mask><path fill="#D0D5DD" d="M1024 1408v1h1v-1h-1Zm-1-64v64h2v-64h-2Zm1 63h-64v2h64v-2Z" mask="url(#iZ)"/><mask id="ja" fill="#fff"><path d="M1024 1344h64v64h-64v-64Z"/></mask><path fill="#D0D5DD" d="M1088 1408v1h1v-1h-1Zm-1-64v64h2v-64h-2Zm1 63h-64v2h64v-2Z" mask="url(#ja)"/><mask id="jb" fill="#fff"><path d="M1088 1344h64v64h-64v-64Z"/></mask><path fill="#D0D5DD" d="M1152 1408v1h1v-1h-1Zm-1-64v64h2v-64h-2Zm1 63h-64v2h64v-2Z" mask="url(#jb)"/><mask id="jc" fill="#fff"><path d="M1152 1344h64v64h-64v-64Z"/></mask><path fill="#D0D5DD" d="M1216 1408v1h1v-1h-1Zm-1-64v64h2v-64h-2Zm1 63h-64v2h64v-2Z" mask="url(#jc)"/><mask id="jd" fill="#fff"><path d="M1216 1344h64v64h-64v-64Z"/></mask><path fill="#D0D5DD" d="M1280 1408v1h1v-1h-1Zm-1-64v64h2v-64h-2Zm1 63h-64v2h64v-2Z" mask="url(#jd)"/><mask id="je" fill="#fff"><path d="M1280 1344h64v64h-64v-64Z"/></mask><path fill="#D0D5DD" d="M1344 1408v1h1v-1h-1Zm-1-64v64h2v-64h-2Zm1 63h-64v2h64v-2Z" mask="url(#je)"/><mask id="jf" fill="#fff"><path d="M1344 1344h64v64h-64v-64Z"/></mask><path fill="#D0D5DD" d="M1408 1408v1h1v-1h-1Zm-1-64v64h2v-64h-2Zm1 63h-64v2h64v-2Z" mask="url(#jf)"/><mask id="jg" fill="#fff"><path d="M1408 1344h64v64h-64v-64Z"/></mask><path fill="#D0D5DD" d="M1472 1408v1h1v-1h-1Zm-1-64v64h2v-64h-2Zm1 63h-64v2h64v-2Z" mask="url(#jg)"/><mask id="jh" fill="#fff"><path d="M1472 1344h64v64h-64v-64Z"/></mask><path fill="#F2F4F7" d="M1472 1344h64v64h-64v-64Z"/><path fill="#D0D5DD" d="M1536 1408v1h1v-1h-1Zm-1-64v64h2v-64h-2Zm1 63h-64v2h64v-2Z" mask="url(#jh)"/><mask id="ji" fill="#fff"><path d="M1536 1344h64v64h-64v-64Z"/></mask><path fill="#D0D5DD" d="M1600 1408v1h1v-1h-1Zm-1-64v64h2v-64h-2Zm1 63h-64v2h64v-2Z" mask="url(#ji)"/><mask id="jj" fill="#fff"><path d="M1600 1344h64v64h-64v-64Z"/></mask><path fill="#D0D5DD" d="M1664 1408v1h1v-1h-1Zm-1-64v64h2v-64h-2Zm1 63h-64v2h64v-2Z" mask="url(#jj)"/><mask id="jk" fill="#fff"><path d="M1664 1344h64v64h-64v-64Z"/></mask><path fill="#D0D5DD" d="M1728 1408v1h1v-1h-1Zm-1-64v64h2v-64h-2Zm1 63h-64v2h64v-2Z" mask="url(#jk)"/></g><path stroke="#D0D5DD" d="M.5.5h1919v1407H.5z"/></g><defs><radialGradient id="a" cx="0" cy="0" r="1" gradientTransform="matrix(0 1440 -751.588 0 720 0)" gradientUnits="userSpaceOnUse"><stop/><stop offset=".953" stop-opacity="0"/></radialGradient><clipPath id="c"><path fill="#fff" d="M0 0h1920v1408H0z"/></clipPath></defs></svg>